
<svg xmlns="http://www.w3.org/2000/svg" viewBox="0 0 55 55">
	<style type="text/css">
		.st0{fill:#EC1900;}
		.st1{stroke:#fff;stroke-width:.75;}
		.st2{fill:#fff;}
	</style>
	<path class="st0" d="M52.7,24.9c-0.9-0.3-1.9-0.7-2.3-0.8c-0.8-0.1-1.9,1-2.5,1s-1.5-1.1-1.8-1.5s-3.3-0.1-4.4,0.6s-6.1-0.1-5.5-0.6
		s3.9-0.7,4-1c0.1-0.4,2.9-1.3,4.2-1.1s1.9,0.1,2.9-0.6c0.7-0.5,2.3-0.6,4.5-0.2c-1.4-5.1-4.3-9.5-8.2-12.8c0,0,0,0,0,0
		C40.1,4.8,35.5,2,27.4,2C20.4,2,14,4.8,9.5,9.4c0.3,0,0.6,0.1,1,0.2c0.7,0.2,1.6,0.1,2,0.1s0-0.3,0.5-0.4s1.3,0.7,3,0.7
		s2.8,0.7,2,0.7s-4,0.5-5.4,1.1C11.3,12.4,11.9,12,11,12s-1.3,0.6-2.4,0.7c-0.5,0.1-1-0.1-1.5-0.4c-2.6,3.4-4.3,7.5-4.8,12
		c0.9,0.5,1.8,1.6,2.1,1.9c0.4,0.4,1.5,1.1,2,1.3c0.6,0.2,0.8,0,1,0.2c0.2,0.2,0.1,1.1-0.7,1.2c-0.8,0.1-1.3-0.2-1.5-0.1
		c-0.2,0.1-0.5,0-1-0.1c-0.5-0.1-0.3,0.2-0.9,0.1c-0.6-0.1-0.3-0.4-0.8-0.3c-0.1,0-0.3,0.1-0.4,0.1c0.2,4.9,1.8,9.5,4.5,13.3
		c0.2,0,0.5,0.2,0.6,0.3c0.2,0.2,0.7,0.2,1.5,0.2c0.7,0,1.9,0.5,2.3,0.7c0.4,0.3,2.4,0.5,2.8,0.5c0.4,0,0.4,0.5,0.8,0.7
		c0.4,0.2,0.6,0,1,0.2c0.3,0.2,1.2,0.3,2,0.4c0.8,0.1,1.3,0.8,2,1c0.7,0.2,1.3,0.2,1.8,0.4s1.1,0.6,1.6,0.8c0.5,0.3,1.9,0.3,1.6,0.4
		c-0.3,0.1-2-0.3-2.5-0.4c-0.5-0.1-0.8,0.4-1.3,0.5c-0.5,0.1-0.7-0.2-1-0.2c-0.4,0.1-0.8,0.1-1.5,0c-0.6-0.2-1.9-0.4-2.2-0.1
		c-0.4,0.2-0.6,0.4-1.5,0.3c-0.9-0.1-0.6,0.2-1.4,0.1c-0.4,0-0.7,0.1-0.9,0.1c4.2,3.2,9.5,5,15.2,5c6.5,0,12.5-2.5,17-6.5
		c-0.2,0-0.3,0-0.4,0c-0.2,0-0.1-0.3-0.7-0.1c-0.5,0.1-0.9,0.1-1.6-0.2s-1.2-0.3-1.5-0.4c-0.4-0.1-1.6-0.5-2-0.4
		c-0.4,0.1-1.4-0.5-1.3-0.7c0.1-0.3,1.8-0.1,2.9-0.5c1.1-0.4,2.3-1.1,2.8-1.3s0.6,0.2,1-0.2c0.4-0.4,0.6-0.6,1.2-0.9
		c0.6-0.2,1.8-0.1,2.3-0.6s0.5-1.4,0.9-1.9c0.4-0.4,0.6-0.7,0.7-0.8c0.2-0.1-0.1-0.7,0.1-0.8c0.3-0.1,0.4,0,1-0.2
		c0.3-0.1,0.6-0.3,1.1-0.4c1.2-2.9,1.8-6.1,1.8-9.4c0,0,0,0,0-0.1c0,0,0,0,0,0C52.8,26.6,52.8,25.7,52.7,24.9z"/>
	<g>
		<path class="st1" d="M31,4.3c0.7-0.6,1.2-1.4,1.2-1.8c-0.7,0.5-1.2,0.2-2-0.1C29.4,2,26.5,0.8,26,1.7c-0.8-0.2-2,3-1.9,3.6
			s-0.5,0.9-0.3,1.6s0.7,1.2,0.6,1.7s-0.4,1.7-0.9,1.9c-0.6,0.2-2.8,1.1-3.1,1.2c-0.5-0.1-1.2-0.2-2.2,1s-1.6,2.2-1.7,2.9
			s-0.3,1-0.6,1.2c-0.3,0.1-0.5,0.5-0.6,1s-0.4,0.4-0.4,0.5c0.4,0.5,0,1.1-0.1,1.4c-0.2,0.3-0.4,1.4-0.2,1.5c0.3,0.2,0.3,0.3,0.2,0.8
			s0.3,1,0.3,1.5s0.2,1.1,0.9,1.3c0.7,0.2,1.7,0.3,1.8,0c1.1,0.7,1.2,1.5,1.6,1.6s1.4-0.4,1.6-0.5c0,0.5-0.3,1.1-0.3,1.4
			s0,0.4,0.1,0.5c-0.8,0-0.9,0.5-1.2,0.7s-1.1,0.4-1.2,1c-0.1,0.7,0,1,0,1.2C18.3,30.9,15,33.3,14,34c-1,0.8-3.2,2.8-3.3,3
			S9.4,37,9,37.9c-0.4,1-0.2,1.6-0.2,1.8c-0.7,0.8-1,1.7-1.2,2c-0.3,0.3-1.3,2-1.5,3.2c-0.7,1.2-0.7,1.8,0.2,2.5s2.1,1.5,2.6,1.5
			s0.8,0.1,0.8,0.6c-0.1,0.5-0.5,1.4-0.5,1.6S8,51.6,7.7,51.8s-0.9,0.6-1.2,0.7c-0.3,0.1-0.8,0.7-0.4,1c0.4,0.2,0.5,0.3,1,0.2
			s1.4,0.1,1.8,0c0.4,0,0.8-0.4,1.3-0.3c0.5,0,1.7,0.4,1.6-0.7c-0.1-1.1,0-2.3,0-2.5c0.1-0.2,0.2-0.6,1-0.7c0.8-0.1,0.9-1.2,0.8-2.4
			c0.3-0.9,0.6-2,0.4-2.5c0.3-0.9,1.1-1.4,2.6-1.5s4.3-4,4.8-4.3s0.7-0.2,1-0.3s0.9-0.7,1.8-0.6c0.9,0.1,3.3,0.1,3.8-0.2
			c0.7-0.4,3,0.3,4,1.3c1.3,0.3,3.6,2.3,4.3,2.6s0.5,0.8,1.4,1c0.8,0.2,1.3,0.1,1.8,0.4c0.8,0.5,0.2,0.9,0.5,1.2s0.8,0.4,0.9,0.6
			c0,0.2-0.2,0.7-0.1,0.9s0.3,0.6,0.3,0.8s-0.2,0.7,0.2,1.5s0.6,1.8,1.3,1.8c0.6,0,1-0.4,1.1-0.5c0.4,0.4,0.6,1,0.6,1.3s-0.1,0.8,0,1
			s-0.3,0.8,0,1.3c0.4,0.6,1.1,0.3,1.7,0.3c0.5,0,0.7,0.4,1,0.4s2,0.1,2.3,0s0.5-0.6,0-0.8s-0.7-0.6-1-0.7c-0.4-0.1-1-0.4-1.3-1.1
			c-0.3-0.7-0.7-1.7-0.7-1.9s0.1-0.7,0.1-0.9c-0.1-0.2,2.1-1.8,2.4-2c0.3-0.2,0.7-0.2,0.6-0.9c-0.2-0.7-2.1-3-2.3-3.5
			c-0.3-0.6-1.2-1.7-1.5-2.5c-0.4-0.6-0.8-1.3-1-1.9c-0.1-0.6-0.2-0.7-0.5-0.8c-0.3-0.2-3-3.2-6-4.1c-3-0.9-2.9-1.5-3-1.8
			c-0.2-0.3-1-0.9-1-1.2c-0.1-0.3,0-0.5-0.2-0.7s-0.4-0.8-0.6-1c-0.2-0.2-0.8-0.3-1-0.5s-0.4-1.1-0.2-1.3c0.3-0.2,0.9-0.4,1-0.8
			s-0.1-0.6,0-0.8c0.1-0.2,0.2-1.1,0.6-1.2c0.4-0.1,0.4-1.1,0.8-1.4c0.4-0.3,1.1-1.2,1.5-1.5c0.3-0.3,1-0.2,1.4-0.1s0.5-0.5,0.6-0.5
			c0.5,0.6,1.2,0.7,1.5,0.7s1.2-0.4,1.3-0.4s1.2,0.1,2-0.6c0.9-0.7,1.6-1.9,2-2.1s0.8-1.1,1.3-1.5s1-0.9,0.8-1.3
			c-0.2-0.4-0.3-0.6-0.3-0.7c0.6-0.5,1-1.4,1.2-1.7s0.3-1.2,0.5-1.6s0.6-1,0.6-1.2S48.3,8.4,48.1,8c-0.2-0.3-0.7-0.7-1.5-0.2
			S45.8,8.7,45.8,9s-0.2,0.7-0.1,1.2c0.1,0.4,0.4,0.6,0.4,0.8s-0.6,1.1-0.8,1.1s-0.4-0.6-0.8-0.7c-0.4,0-1.2,0.2-1.7,0.7
			c-0.5,0.6-0.8,0.6-0.8,1.4c0,0.9-0.7,0.9-1.2,0.8s-1.1,0-1.4,0.2c-0.7-0.7-0.5-0.9-1.1-1.2s-1.3-0.5-1.7-0.8s-2-0.9-3.1-1
			s-1-0.5-1.2-0.5s-0.6,0.2-1,0s-0.4-0.6-0.5-1s-0.4-0.5-0.4-0.7s0.7-1,0.7-1.4c0.1-0.4,0.1-2.6,0.2-2.9C31.3,4.8,31.2,4.7,31,4.3z"
			/>
		<path class="st2" d="M31.2,26.1c-0.8,0-1.6,0.7-2.6,1c-0.5,0.3-1,0.4-1.1,0.2c-0.1-0.2-0.5-0.7-0.4-0.9c-0.3-0.4-0.6,0.1-0.9,0
			S25,26,25,26.4c-0.1,0.4,0,1-0.5,1s-1.3-0.2-1.5-0.1s-0.2,0.2-0.4-0.2c-0.2-0.3-0.6-0.2-0.7-0.6s-0.3-0.3-0.3,0
			c-0.1,0.3-0.2,1.2-0.2,1.3c0,0.2,0.4,0.1,0.4,0.2c-0.7,0.5-1.3,1.6-1.4,2.7s-0.2,2-0.2,2.2c0.4,0.3,1.2,2.4,1.2,3s0,2.1,0.2,2.5
			c0.3-0.7,0.5-0.5,0.6-0.7s0-1.2-0.4-1.8c-0.3-0.6-0.5-1.7-0.2-2.3s-0.3-1.1-0.3-1.4c0-0.3,0.2-2.5,0.2-2.8s0.4-0.9,1.5-0.6
			c1-0.4,1.1-0.2,0.9,0.3c0.7,0.2,1.2,0.4,1.4,0.7c0.3,0.2,0.5,0.3,0.6,0.3s0.7-0.5,1.2-0.6c0.4-0.1,0.6-0.4,0.6-0.5
			c-0.1-0.4-0.8-0.7-0.8-1.1s0.2-0.4,0.6,0c0.3,0.4,1.1,1,1.3,2c0.2,1,0.6,1.5,0.5,2.4c0,0.9-0.4,2.6-0.4,3.1s-0.3,0.9,0,1.7
			c0.1-0.1,0.2,0.2,0.3,0.3c0.1-0.7,0.2-0.5,0.3-0.7c-0.3-1.1-0.1-2.4,0-3.1c0.1-0.6,0-1.3,0.1-2c0-0.7-0.2-1.5-0.4-2
			c-0.2-0.4-0.7-0.7-0.7-0.9c0-0.2,0.3,0,0.7-0.1c0.3-0.1,0-0.4,1-0.7c1-0.2,1.5-0.5,1.5-0.7C31.5,27.1,31.1,26.5,31.2,26.1z
			 M26.3,27.5c-0.1,0.4,0,0.5-0.8,1c-0.4,0.2,0,0.7,0.1,0.9c-0.8-0.2-1.1-0.8-0.9-1.3s0.9-0.4,1-0.6c0.2-0.2,0.3-0.7,0.1-0.8
			C26.1,26.5,26.5,27.1,26.3,27.5z"/>
	</g>
</svg>
