
<svg xmlns="http://www.w3.org/2000/svg" viewBox="0 0 55 55">
	<style type="text/css">
		.st0{fill:#EC1900;}
		.st1{fill:#000;stroke:#fff;stroke-width:.5;}
		.st2{fill:#fff;}
	</style>
	<path class="st0" d="M44.1,46.3c-0.2,0-0.1-0.3-0.7-0.1c-0.5,0.1-0.9,0.1-1.6-0.2c-0.7-0.3-1.2-0.3-1.5-0.4c-0.4-0.1-1.6-0.5-2-0.4
		s-1.4-0.5-1.3-0.7c0.1-0.3,1.8-0.1,2.9-0.5s2.3-1.1,2.8-1.3s0.6,0.2,1-0.2s0.6-0.6,1.2-0.9c0.6-0.2,1.8-0.1,2.3-0.6s0.5-1.4,0.9-1.9
		c0.4-0.4,0.6-0.7,0.7-0.8c0.2-0.1-0.1-0.7,0.1-0.8c0.3-0.1,0.4,0,1-0.2c0.3-0.1,0.6-0.3,1.1-0.4c1.2-2.9,1.8-6.1,1.8-9.4
		c0-4.9-1.4-9.6-3.9-13.5c-0.5,0-1-0.1-1.4-0.4c-0.9-0.7-2.6-1.2-3.5-1.5c-0.9-0.2-1.6-0.7-2.6-1.3c-0.9-0.6-1.9,0-2.6-0.6
		s-0.4-1,0-1.3c0.4-0.3,1.4-0.5,2.7-0.4c1,0.1,1.7-0.2,2.2-0.6c-4.4-3.7-10.1-5.9-16.3-5.9c-7,0-13.4,2.8-17.9,7.4
		c0.3,0,0.6,0.1,1,0.2c0.7,0.2,1.6,0.1,2,0.1c0.4,0,0-0.3,0.5-0.4c0.5-0.1,1.3,0.7,3,0.7c1.7,0,2.8,0.7,2,0.7c-0.8,0-4,0.5-5.4,1.1
		c-1.3,0.6-0.7,0.2-1.6,0.2c-0.9,0-1.3,0.6-2.4,0.7c-0.5,0.1-1-0.1-1.5-0.4c-2.6,3.4-4.3,7.5-4.8,12c0.9,0.5,1.8,1.6,2.1,1.9
		c0.4,0.4,1.5,1.1,2,1.3c0.6,0.2,0.8,0,1,0.2c0.2,0.2,0.1,1.1-0.7,1.2s-1.3-0.2-1.5-0.1c-0.2,0.1-0.5,0-1-0.1s-0.3,0.2-0.9,0.1
		c-0.6-0.1-0.3-0.4-0.8-0.3c-0.1,0-0.3,0.1-0.4,0.1c0.2,4.9,1.8,9.5,4.5,13.3c0.2,0,0.5,0.2,0.6,0.3c0.2,0.2,0.7,0.2,1.5,0.2
		c0.7,0,1.9,0.5,2.3,0.7c0.4,0.3,2.4,0.5,2.8,0.5c0.4,0,0.4,0.5,0.8,0.7c0.4,0.2,0.6,0,1,0.2c0.3,0.2,1.2,0.3,2,0.4s1.3,0.8,2,1
		c0.7,0.2,1.3,0.2,1.8,0.4c0.5,0.2,1.1,0.6,1.6,0.8c0.5,0.3,1.9,0.3,1.6,0.4s-2-0.3-2.5-0.4s-0.8,0.4-1.3,0.5c-0.5,0.1-0.7-0.2-1-0.2
		c-0.4,0.1-0.8,0.1-1.5,0c-0.6-0.2-1.9-0.4-2.2-0.1c-0.4,0.2-0.6,0.4-1.5,0.3c-0.9-0.1-0.6,0.2-1.4,0.1c-0.4,0-0.7,0.1-0.9,0.1
		c4.2,3.2,9.5,5,15.2,5c6.5,0,12.5-2.5,17-6.5C44.3,46.3,44.2,46.3,44.1,46.3z"/>
	<g>
		<path class="st1" d="M31,4.3c0.7-0.6,1.2-1.4,1.2-1.8c-0.7,0.5-1.2,0.2-2-0.1c-0.8-0.4-3.7-1.6-4.2-0.7c-0.8-0.2-2,3-1.9,3.6
			c0.1,0.6-0.5,0.9-0.3,1.6s0.7,1.2,0.6,1.7s-0.4,1.7-0.9,1.9c-0.6,0.2-2.8,1.1-3.1,1.2c-0.5-0.1-1.2-0.2-2.2,1s-1.6,2.2-1.7,2.9
			s-0.3,1-0.6,1.2c-0.3,0.1-0.5,0.5-0.6,1c-0.1,0.5-0.4,0.4-0.4,0.5c0.4,0.5,0,1.1-0.1,1.4c-0.2,0.3-0.4,1.4-0.2,1.5
			c0.3,0.2,0.3,0.3,0.2,0.8c-0.1,0.5,0.3,1,0.3,1.5s0.2,1.1,0.9,1.3c0.7,0.2,1.7,0.3,1.8,0c1.1,0.7,1.2,1.5,1.6,1.6s1.4-0.4,1.6-0.5
			c0,0.5-0.3,1.1-0.3,1.4c0,0.3,0,0.4,0.1,0.5c-0.8,0-0.9,0.5-1.2,0.7s-1.1,0.4-1.2,1c-0.1,0.7,0,1,0,1.2C18.3,30.9,15,33.3,14,34
			c-1,0.8-3.2,2.8-3.3,3S9.4,37,9,37.9c-0.4,1-0.2,1.6-0.2,1.8c-0.7,0.8-1,1.7-1.2,2c-0.3,0.3-1.3,2-1.5,3.2
			c-0.7,1.2-0.7,1.8,0.2,2.5s2.1,1.5,2.6,1.5s0.8,0.1,0.8,0.6c-0.1,0.5-0.5,1.4-0.5,1.6S8,51.6,7.7,51.8c-0.3,0.2-0.9,0.6-1.2,0.7
			c-0.3,0.1-0.8,0.7-0.4,1c0.4,0.2,0.5,0.3,1,0.2s1.4,0.1,1.8,0c0.4,0,0.8-0.4,1.3-0.3c0.5,0,1.7,0.4,1.6-0.7c-0.1-1.1,0-2.3,0-2.5
			c0.1-0.2,0.2-0.6,1-0.7c0.8-0.1,0.9-1.2,0.8-2.4c0.3-0.9,0.6-2,0.4-2.5c0.3-0.9,1.1-1.4,2.6-1.5s4.3-4,4.8-4.3
			c0.5-0.3,0.7-0.2,1-0.3s0.9-0.7,1.8-0.6c0.9,0.1,3.3,0.1,3.8-0.2C28.7,37.3,31,38,32,39c1.3,0.3,3.6,2.3,4.3,2.6
			c0.7,0.3,0.5,0.8,1.4,1c0.8,0.2,1.3,0.1,1.8,0.4c0.8,0.5,0.2,0.9,0.5,1.2c0.3,0.3,0.8,0.4,0.9,0.6c0,0.2-0.2,0.7-0.1,0.9
			s0.3,0.6,0.3,0.8s-0.2,0.7,0.2,1.5s0.6,1.8,1.3,1.8c0.6,0,1-0.4,1.1-0.5c0.4,0.4,0.6,1,0.6,1.3s-0.1,0.8,0,1c0.1,0.2-0.3,0.8,0,1.3
			c0.4,0.6,1.1,0.3,1.7,0.3c0.5,0,0.7,0.4,1,0.4s2,0.1,2.3,0s0.5-0.6,0-0.8s-0.7-0.6-1-0.7c-0.4-0.1-1-0.4-1.3-1.1
			c-0.3-0.7-0.7-1.7-0.7-1.9c0-0.2,0.1-0.7,0.1-0.9c-0.1-0.2,2.1-1.8,2.4-2c0.3-0.2,0.7-0.2,0.6-0.9c-0.2-0.7-2.1-3-2.3-3.5
			c-0.3-0.6-1.2-1.7-1.5-2.5c-0.4-0.6-0.8-1.3-1-1.9c-0.1-0.6-0.2-0.7-0.5-0.8c-0.3-0.2-3-3.2-6-4.1c-3-0.9-2.9-1.5-3-1.8
			c-0.2-0.3-1-0.9-1-1.2c-0.1-0.3,0-0.5-0.2-0.7s-0.4-0.8-0.6-1c-0.2-0.2-0.8-0.3-1-0.5s-0.4-1.1-0.2-1.3c0.3-0.2,0.9-0.4,1-0.8
			c0.1-0.4-0.1-0.6,0-0.8c0.1-0.2,0.2-1.1,0.6-1.2c0.4-0.1,0.4-1.1,0.8-1.4c0.4-0.3,1.1-1.2,1.5-1.5c0.3-0.3,1-0.2,1.4-0.1
			s0.5-0.5,0.6-0.5c0.5,0.6,1.2,0.7,1.5,0.7c0.3,0,1.2-0.4,1.3-0.4c0.1,0,1.2,0.1,2-0.6c0.9-0.7,1.6-1.9,2-2.1
			c0.4-0.2,0.8-1.1,1.3-1.5c0.5-0.4,1-0.9,0.8-1.3c-0.2-0.4-0.3-0.6-0.3-0.7c0.6-0.5,1-1.4,1.2-1.7c0.2-0.3,0.3-1.2,0.5-1.6
			s0.6-1,0.6-1.2c0-0.2-0.6-0.9-0.8-1.3c-0.2-0.3-0.7-0.7-1.5-0.2c-0.8,0.5-0.8,0.9-0.8,1.2s-0.2,0.7-0.1,1.2
			c0.1,0.4,0.4,0.6,0.4,0.8c0,0.2-0.6,1.1-0.8,1.1c-0.2,0-0.4-0.6-0.8-0.7c-0.4,0-1.2,0.2-1.7,0.7c-0.5,0.6-0.8,0.6-0.8,1.4
			c0,0.9-0.7,0.9-1.2,0.8s-1.1,0-1.4,0.2c-0.7-0.7-0.5-0.9-1.1-1.2c-0.6-0.3-1.3-0.5-1.7-0.8s-2-0.9-3.1-1c-1.1-0.1-1-0.5-1.2-0.5
			s-0.6,0.2-1,0c-0.4-0.2-0.4-0.6-0.5-1c-0.1-0.4-0.4-0.5-0.4-0.7c0-0.2,0.7-1,0.7-1.4c0.1-0.4,0.1-2.6,0.2-2.9
			C31.3,4.8,31.2,4.7,31,4.3z"/>
		<path class="st2" d="M31.2,26.1c-0.8,0-1.6,0.7-2.6,1c-0.5,0.3-1,0.4-1.1,0.2c-0.1-0.2-0.5-0.7-0.4-0.9c-0.3-0.4-0.6,0.1-0.9,0
			c-0.3-0.1-1.2-0.4-1.2,0c-0.1,0.4,0,1-0.5,1s-1.3-0.2-1.5-0.1c-0.2,0.1-0.2,0.2-0.4-0.2c-0.2-0.3-0.6-0.2-0.7-0.6s-0.3-0.3-0.3,0
			c-0.1,0.3-0.2,1.2-0.2,1.3c0,0.2,0.4,0.1,0.4,0.2c-0.7,0.5-1.3,1.6-1.4,2.7c-0.1,1.1-0.2,2-0.2,2.2c0.4,0.3,1.2,2.4,1.2,3
			c0,0.6,0,2.1,0.2,2.5c0.3-0.7,0.5-0.5,0.6-0.7c0.1-0.2,0-1.2-0.4-1.8c-0.3-0.6-0.5-1.7-0.2-2.3c0.3-0.6-0.3-1.1-0.3-1.4
			c0-0.3,0.2-2.5,0.2-2.8c0-0.3,0.4-0.9,1.5-0.6c1-0.4,1.1-0.2,0.9,0.3c0.7,0.2,1.2,0.4,1.4,0.7c0.3,0.2,0.5,0.3,0.6,0.3
			c0.1,0,0.7-0.5,1.2-0.6c0.4-0.1,0.6-0.4,0.6-0.5c-0.1-0.4-0.8-0.7-0.8-1.1c0-0.4,0.2-0.4,0.6,0c0.3,0.4,1.1,1,1.3,2
			c0.2,1,0.6,1.5,0.5,2.4c0,0.9-0.4,2.6-0.4,3.1c0,0.5-0.3,0.9,0,1.7c0.1-0.1,0.2,0.2,0.3,0.3c0.1-0.7,0.2-0.5,0.3-0.7
			c-0.3-1.1-0.1-2.4,0-3.1c0.1-0.6,0-1.3,0.1-2c0-0.7-0.2-1.5-0.4-2c-0.2-0.4-0.7-0.7-0.7-0.9c0-0.2,0.3,0,0.7-0.1
			c0.3-0.1,0-0.4,1-0.7c1-0.2,1.5-0.5,1.5-0.7C31.5,27.1,31.1,26.5,31.2,26.1z M26.3,27.5c-0.1,0.4,0,0.5-0.8,1
			c-0.4,0.2,0,0.7,0.1,0.9c-0.8-0.2-1.1-0.8-0.9-1.3c0.2-0.5,0.9-0.4,1-0.6c0.2-0.2,0.3-0.7,0.1-0.8C26.1,26.5,26.5,27.1,26.3,27.5z"
			/>
	</g>
</svg>
