
<svg id="fighter" viewBox="0 0 720 720">
  <defs>
    <style>
      .cls-2, .cls-7 {
        fill: #464648;
      }

      .cls-3, .cls-9 {
        fill: #fff;
      }

      .cls-3, .cls-5, .cls-7, .cls-8 {
        stroke: #231f20;
        stroke-miterlimit: 10;
      }

      .cls-3, .cls-5, .cls-7 {
        stroke-width: 0.2px;
      }

      .cls-4 {
        fill: #283075;
      }

      .cls-5, .cls-8 {
        fill: none;
      }

      .cls-6 {
        fill: #454547;
      }

      .cls-10 {
        fill: #ddd;
      }

      .cls-11 {
        fill: #231f20;
      }
    </style>
  </defs>
  <g id="_01" data-name="01">
    <path class="cls-2" d="M59.7,139.2c0,.4-.2,1.5-.2,1.9a1,1,0,0,0,1.1.9,18.74,18.74,0,0,1,3.3.1,9,9,0,0,0,2.7.2c.6-.1,2.5-.6,2.8-1.1s-.3-.8-.5-.8-1,.1-1.3.1-2.2-1.1-2.5-1.1a1.6,1.6,0,0,1-1-.5" transform="translate(0.2 0)"/>
    <path class="cls-2" d="M64.5,136.6c.4,0,1,.1,1.3-.1s.7-.6.3-.9c-.2-.2-1.3-.1-1.5-.1a1.9,1.9,0,0,1-.9-.3" transform="translate(0.2 0)"/>
    <path class="cls-3" d="M53.4,90.7a6.58,6.58,0,0,1-.4,1.5,3,3,0,0,0-1.4.1c-.4.1-1.5.9-1.9,1s-1.9.6-1.9.8-.1,1.2-.2,1.4a31.3,31.3,0,0,0-2.4,4,29.07,29.07,0,0,0-1.6,4.2c-.2.6-1.1,2.4-1,3.1s.7,1.3,1.9,1.2a1.91,1.91,0,0,1-.2,1.3c-.2.2-1.6,1.5-2.1,2a6.23,6.23,0,0,0-1.3,3.5,19.16,19.16,0,0,0-.3,3,6.3,6.3,0,0,0,3.2,2.2c.8.2,1.1.3,1.6.4a9.74,9.74,0,0,1,2.4,1.5c.3.3,2.4,1.9,2.8,2.2a8.87,8.87,0,0,1,1.8,1.3,16.76,16.76,0,0,0,2.6,1.9c.3.1.6.3.6.6a31.12,31.12,0,0,0-.1,3.2c.1.6-.3.8-.5,1.5a10.23,10.23,0,0,0-.3,1.1c.1.1,2.1.4,2.2.5a4.67,4.67,0,0,1-.7,2.1c-.1.4.5,1.6,1.8,2.2s2.1.8,2.3,1a3.67,3.67,0,0,0,1.8-.1,5.27,5.27,0,0,1,1.2-.3c.3-.1.9-.4,1-.7a4.16,4.16,0,0,0-.1-2.2,2.27,2.27,0,0,1-.6-1.2c0-.3.9-3.3.9-4.1s1-3.7.9-4.8-.8-3.6-2.2-4.6-3.7-3-3.8-3.1a2.1,2.1,0,0,0,.3-1.2,23.6,23.6,0,0,0-4.8-3.4,4.67,4.67,0,0,1-.3-1.7c.1-.4.6-.5.8-.8s.5-.5.4-.8-.2-.8,0-.9a5.66,5.66,0,0,0,1.6-2.7c.1-.9-.1-3.3.1-3.6a27.35,27.35,0,0,0,1.1-3.7,12.66,12.66,0,0,0-.5-3.9,14.59,14.59,0,0,0-1.7-2.9C55.9,92.2,54.7,90.7,53.4,90.7Z" transform="translate(0.2 0)"/>
    <g id="belt">
      <path class="cls-4" d="M43.7,109.9c.1.3,1.1,1.4,3.5,2a22.64,22.64,0,0,1,3.1,1.1,32.9,32.9,0,0,0,4.3.9c.6-.1.2.3.3.5s.9,1,1.4,1.1,1.3,1.1,1.9,1.5,6.4,5.2,7,5.5a15.09,15.09,0,0,0,3.5,1.9,1.65,1.65,0,0,0,1.1-.4,9.8,9.8,0,0,0-1.9-1.3c-.5-.3-2.4-1.7-3.5-2.6s-7.8-6.5-8.3-6.9a5.54,5.54,0,0,0-1.9-1.2,21.58,21.58,0,0,1-2.7-.5c-.5-.2-6.6-2.3-7-2.5A6.47,6.47,0,0,0,43.7,109.9Z" transform="translate(0.2 0)"/>
      <path class="cls-4" d="M70.7,122.2c0,.4-.4,1.2-.6,1.2a15.86,15.86,0,0,1-2.1-.8,38.15,38.15,0,0,1-4.2-3c-.3-.2-6.7-5.6-7.3-6s-1.1-.8-1.1-1.1a.94.94,0,0,0-.6-.8.9.9,0,0,1,.9-.2c.5.1,1.3,1.1,1.5,1.4s3,3.4,3.4,3.7a18.06,18.06,0,0,0,3.3,2.3c1.1.5,4.4,2,5.1,2.4A4.26,4.26,0,0,1,70.7,122.2Z" transform="translate(0.2 0)"/>
    </g>
    <path class="cls-3" d="M46.4,111.6c-.3,0-1-.8-1.4-1.4s-.7-1.7-.3-1.8a1.61,1.61,0,0,1,1.1.2c.7.5,1.8,1.4,2.2,1.6a4.9,4.9,0,0,1,1.5,1.2,13.21,13.21,0,0,0,.1-4.4,5,5,0,0,1,.1-2.5" transform="translate(0.2 0)"/>
    <path class="cls-5" d="M52,111.7a50.73,50.73,0,0,0,3.5-4.6c.5-.8,1.8-3.4,2-3.9" transform="translate(0.2 0)"/>
    <path class="cls-5" d="M53,111.9a10,10,0,0,0,2.4-2.2c.2-.5,1-3.2,1-3.4s.9-2.6,1-2.9" transform="translate(0.2 0)"/>
    <path class="cls-5" d="M49.6,106.5a1.15,1.15,0,0,0,.6-.9,5.12,5.12,0,0,1,.3-2,18,18,0,0,0,1-1.8" transform="translate(0.2 0)"/>
    <path class="cls-5" d="M50.2,105.3c.3,0,.8-.7,1-1a39.57,39.57,0,0,0,3.1-4.1" transform="translate(0.2 0)"/>
    <path class="cls-5" d="M45.6,120.5a16.72,16.72,0,0,0,2.4.4c0-1.1,2-6.9,2.8-7.4.5-.3,0,0,1.6,1a48.73,48.73,0,0,1,6,4.6,1.44,1.44,0,0,0,1.1-.7" transform="translate(0.2 0)"/>
    <path class="cls-2" d="M53.6,90.6c-.2,0,.5-.8-.6-1.6s-1.1-4-.7-5.1c.6-1.3,2.4-1.9,4.7-2a4.08,4.08,0,0,1,3.7,2.9c.3.8.5,1.3.4,1.5a.66.66,0,0,0,.3.9c.6.4.1,3.2-.4,5-1.3.9-1.9.5-2.3.7A3.89,3.89,0,0,0,57.6,95a8.43,8.43,0,0,0-2.7-3.5C54.4,91.2,54,90.7,53.6,90.6Z" transform="translate(0.2 0)"/>
    <g id="hand">
      <path class="cls-6" d="M45.6,108.5a13.16,13.16,0,0,0,1.3,3.8c.5.6.6.9.6,1.1a3.75,3.75,0,0,0,0,1.5c.2.4.7.8.8,1.3a2.73,2.73,0,0,0,.7,1.3,4.76,4.76,0,0,0,2,1.1.93.93,0,0,0,.9-.6,13.8,13.8,0,0,0-.3-2c-.1-.2,0-1-.1-1.2s-1.2-1.1-1.4-1.4a5.87,5.87,0,0,1-.5-2c-.6-1.2-1.8-1.3-2.8-2.2C46.3,108.9,45.9,108.7,45.6,108.5Z" transform="translate(0.2 0)"/>
      <path class="cls-2" d="M51.5,115.7a5.36,5.36,0,0,1,.5,1.1c.1.3.3.7.1.8a.77.77,0,0,1-.3.1" transform="translate(0.2 0)"/>
    </g>
    <path class="cls-5" d="M56.9,134.2a20.94,20.94,0,0,1,.8-2.3,11.87,11.87,0,0,0-.2-2.8c0-.1-1.1-.3-1.4-.8a2.3,2.3,0,0,0-.6-.7" transform="translate(0.2 0)"/>
  </g>
  <g id="_02" data-name="02">
    <path class="cls-2" d="M125.3,136.7c-.2.4-.7,1.2-.4,1.7s1,.6,1.9.5,3.2-.3,3.2-.3l.1-1.5Z" transform="translate(0.2 0)"/>
    <path class="cls-2" d="M126.5,140.3c-.3.4-.5,1.2-.1,1.6s2.5.3,2.9.3,2.8.6,3.8.6,3,0,3.3-.7,0-1-.2-1a5.59,5.59,0,0,1-2.4-.7C133,140,126.5,140.3,126.5,140.3Z" transform="translate(0.2 0)"/>
    <path class="cls-2" d="M134.5,111.3a11.72,11.72,0,0,0,3.1-.9c.2-.2,1.8-2,2-2.2s3.2-1.6,3.4-1.7.9-.1.9,0-.1,1.2-.3,1.3-.5.5-.5.6.2.4.1.6-1.7,1-1.8,1.3-.9,1.5-1.4,1.7-1.5.4-1.8.5a27.54,27.54,0,0,0-4.1,2.4l-1.4-.1Z" transform="translate(0.2 0)"/>
    <path class="cls-2" d="M130.6,103.7a14.51,14.51,0,0,0,1.8-1c.3-.1.8-.5.8-.7s.1-1.3.1-1.5.5-.5.6-.6.2-.4.3-.5.7-.9.9-.8.5.4.6.7-.1.4-.1.4c.2.1,0,.7-.1.8s.2.3.2.4-.4,1-.4,1.2a1.45,1.45,0,0,1-.1,1.1c-.3.3-.9.6-1.1.8s-2.9,2.8-3,3.1-.9-1.8-.8-2.3A6,6,0,0,1,130.6,103.7Z" transform="translate(0.2 0)"/>
    <path class="cls-3" d="M123,110.4a15.63,15.63,0,0,1-1.4-1.9,6.28,6.28,0,0,0-1.2-1.1,30.54,30.54,0,0,0-3.5-1.5c-.7-.2-2.2-.1-2.6.4a1,1,0,0,0,.4.7l-.5.5a6,6,0,0,0-.5,1.6,4.26,4.26,0,0,1-.9,1.7c-.3.2-.4.8-.5,1.1a4.08,4.08,0,0,0-.9,2c-.1,1.2-.2,3.8-.3,4.6s.4,3.6.5,5,0,1.2.8,1.6.8.2,1.5,0v.7a7.64,7.64,0,0,0-1.7,2.3,17.41,17.41,0,0,0,.1,3.1,6.62,6.62,0,0,0,1.9,3.7c1,.7,4.9.4,6.1.3a48.15,48.15,0,0,1,5.3-.1,6.38,6.38,0,0,0,3.4-.9c-.1.3-.3.9-.7,1.1s-.4,1.1-.5,1.3-.4.1-.5.5.3.6.1.9-.4.4-.4.8-.7.7-.5,1.2,2.2.9,3.2,1,3,.1,3.3-.4a18.7,18.7,0,0,0,3.4.3c.4-.1,1.1-3.9,1-4.4a19.47,19.47,0,0,1-.1-2.8,12.66,12.66,0,0,0-.5-3.9c-.3-1.2,0-1.9-.2-3s-.1-1.9-1.6-2.6a2.58,2.58,0,0,0-1.9-2.4,19.06,19.06,0,0,0-4-.2,1.59,1.59,0,0,0-.8-1c-.3,0-.4.4-.6.4s-.3-.7-.6-.5a21,21,0,0,1-2.6,1.3c-.2,0-.2-.3-.2-.9a16,16,0,0,0,.3-3.6,52.82,52.82,0,0,0,9.3.3c0-1,.9-5.2.6-6.2a20.12,20.12,0,0,1-2.6-.1c-.4.1-.6.3-1,.3s-.8-.4-1-.4-.4.4-.6.5-.5-.2-.8-.3-.8.3-1.2,0a11.5,11.5,0,0,0-1.7-.6,22.28,22.28,0,0,1-2.7-.3c-.3-.2-1.4-1.4-1.7-1.6a4,4,0,0,0-1.6-.4" transform="translate(0.2 0)"/>
    <path class="cls-3" d="M126.4,110.9a30.81,30.81,0,0,0,5.1-1.6,11,11,0,0,1-.5-3.8,2.32,2.32,0,0,0-.4-1.8,6.87,6.87,0,0,0-1.7.5,5.65,5.65,0,0,1-2.4.7,4.62,4.62,0,0,1-1.4,1c-.2,0-.8-.1-.9.1s-.4.3-.8.2a6.15,6.15,0,0,0-1.4.1c-.3.1-1.4-.8-1.6-.8a7.44,7.44,0,0,1-.3,1.7,5.15,5.15,0,0,1,1.8,1.9c.6.8.8,1.3,1.2,1.3s1.7.1,2.3.2C126.2,110.9,126.2,110.9,126.4,110.9Z" transform="translate(0.2 0)"/>
    <path class="cls-3" d="M127.38,137.26a3.86,3.86,0,0,1-2-.6c0-.6.9-1.7.9-1.7a6.22,6.22,0,0,0,2.7-.9,1.88,1.88,0,0,1-.6,1.2,1.15,1.15,0,0,0-.5.9c0,.4-.1.5-.3.6S127.28,137.06,127.38,137.26Z" transform="translate(0.2 0)"/>
    <path class="cls-5" d="M129,121.5c0,.5-.3,1.3-.1,1.7s1.1.4,1.4,1.2.2,1.1,0,1.3a46.29,46.29,0,0,1-6.3.1,28.39,28.39,0,0,1-3,.5c-.5.1-1.1.1-1.1,2.3a22.59,22.59,0,0,0,1,6.3" transform="translate(0.2 0)"/>
    <path class="cls-5" d="M113.6,125c.9-.6.8-.5,1.3-.4s.5-.6,1-.6a16.08,16.08,0,0,0,2.2,0,6.24,6.24,0,0,1,1.7-.2" transform="translate(0.2 0)"/>
    <path class="cls-5" d="M124.5,117.2c-1.2-.2-2.7-.2-4.6-.4s-2.2,0-3-.2a5.86,5.86,0,0,0-2.1-.3c-.4,0-1.2-.1-1.9-.1" transform="translate(0.2 0)"/>
    <path class="cls-5" d="M117.4,116.6c-1-.5-.7-.7-1.6-1a8.27,8.27,0,0,1-1.9-1.6" transform="translate(0.2 0)"/>
    <path class="cls-5" d="M123.6,117c-.4.9-.9,3-1.3,3.4s-1.3,3.2-1.1,4" transform="translate(0.2 0)"/>
    <g id="belt-2" data-name="belt">
      <path class="cls-4" d="M123.9,123.7a10.62,10.62,0,0,1,2.8-1h3.8c1.4,0,2.7.2,3.3.1s3.6,0,4.5,0,4.3.2,4.7.3.5,1.8.2,2-2.9-.2-4.2-.2-2.8-.2-3.3-.2a12.82,12.82,0,0,0-4.9-1,16.17,16.17,0,0,0-3.8.4c-.6.2-2.9.1-3.3.3a4.28,4.28,0,0,0-1.4,1.6,5.49,5.49,0,0,0-2.2.5,15.8,15.8,0,0,1-4.7.6c-1.5-.1-1.8-.1-1.9-.6s-.3-1.3,0-1.5a13.39,13.39,0,0,0,4.5.2C119.3,124.9,123,124.1,123.9,123.7Z" transform="translate(0.2 0)"/>
      <path class="cls-4" d="M136.5,128.8a16.69,16.69,0,0,0,5.3,3.2,2,2,0,0,0,.5-1.5,16.71,16.71,0,0,1-5.8-2.5" transform="translate(0.2 0)"/>
      <path class="cls-4" d="M124.3,121.6a3.24,3.24,0,0,1,1.5,1.3,2.12,2.12,0,0,0-.7.3c-.3.1-.6.3-.9.4A3.5,3.5,0,0,0,124.3,121.6Z" transform="translate(0.2 0)"/>
    </g>
    <path class="cls-2" d="M113.6,97.2a7.68,7.68,0,0,1,4.3.6c.6.4.5,1,.7,1.2s1.8.2,2,.4a18,18,0,0,1,1.2,3.5c0,.5-1.2,1.8-1.4,2a5.7,5.7,0,0,1,.1,1.3c0,.4-.2,1-.2,1.2a32,32,0,0,0-3.7-1.5c-.4,0-1.7-.1-2.3.5-1.8-.7-3.7-2.9-3.8-4.3S111.7,97.8,113.6,97.2Z" transform="translate(0.2 0)"/>
  </g>
  <g id="_03" data-name="03">
    <path class="cls-2" d="M198.9,135.1c-.3.3-1.1,1-1,1.7s.9,1,1.8,1,1.8-1.8,1.8-1.8Z" transform="translate(0.2 0)"/>
    <path class="cls-2" d="M199.7,138.3a1.42,1.42,0,0,0-.3,1.7,6.5,6.5,0,0,0,2.5,1c.8.2,1.9.9,2.5,1.1a7.2,7.2,0,0,0,2.3.3c.2-.1,2,.3,1.9-.5s-4.4-2.5-4.6-2.5S199.7,138.3,199.7,138.3Z" transform="translate(0.2 0)"/>
    <path class="cls-2" d="M175.4,97.2c.2-1.1.4-1.9.4-2.2s-.1-.6-.1-1.1.2-1-.1-1.5a11.79,11.79,0,0,0-2.1-1.8c-.3-.5-1.2-1.6-1.4-1.9s-.7-1.4-1.1-1.6c-.1-.4.7-.5,1-.4s1.2,1,1.4,1.2c0-.5.7-.5,1-.4s.8,1,1.2,1.1a2.38,2.38,0,0,1,1.7,1.2c.3.8.2,1.4.4,1.9s1.2,3.1,1.3,3.7.6,2.2.6,2.6.1,1.2-.7,1.2-2.9-.1-3.2-.9A2.17,2.17,0,0,1,175.4,97.2Z" transform="translate(0.2 0)"/>
    <path class="cls-2" d="M174,98.8c-.2-.7-.7-2.8-.8-3.1s-.3-1.3-.6-1.3c-.8-.2-1.1.1-1.8.1A5.7,5.7,0,0,1,168,93a1.09,1.09,0,0,1,1-.8c.5,0,1.3.3,1.8.3s1.4-.3,2.1-.3,1,.2,1.6,1,1,1.5,1.3,1.9,1.1,2.4.8,2.7C176.3,98.3,174,98.8,174,98.8Z" transform="translate(0.2 0)"/>
    <path class="cls-2" d="M175.1,102.4a9.4,9.4,0,0,0-2.3-.1,5.47,5.47,0,0,0-1.1,1c-.3-.3-.5-.1-.7-.1a3.3,3.3,0,0,0-2.2,3.7,3.13,3.13,0,0,0,3,2.9,8.52,8.52,0,0,0,3.3-.7c.7-.5,2.4-4.4,1.9-5.5A2.1,2.1,0,0,0,175.1,102.4Z" transform="translate(0.2 0)"/>
    <path class="cls-3" d="M174,98.8a1.91,1.91,0,0,1,1.2-.5c0-.4.1-1,.2-1a1,1,0,0,0,.6,1,5.48,5.48,0,0,0,2.4.6c1.1,0,1.2,0,1.2-.4s0-.6-.2-.8c1.7.4,2.5,1.1,2.5,1.4a12.68,12.68,0,0,0-.5,3.4c.1,1.6.4,3.4.4,3.6a22.84,22.84,0,0,1,4.7,2.3,66.91,66.91,0,0,1,5.4,5.2c.4.5,3.1,3.8,3.4,4.3a3.79,3.79,0,0,0,1.7,1.4c.5.1,4.5.7,4.8.9a.49.49,0,0,1,.1.3,21.62,21.62,0,0,1,5.7,1c.5.2,1.8.6,2.2.8a4.43,4.43,0,0,1,1.3,2.6,3.47,3.47,0,0,1,2.3,2.5,16.84,16.84,0,0,1-.6,4.5c-.3.8-2.1,7-2.7,8.1a13.38,13.38,0,0,0-.9,2.3.74.74,0,0,1-1,.1,12.3,12.3,0,0,0-2.8-1.8c-.7-.2-1.1.2-1.9,0s-3.9-1.7-3.9-2.3.5-.8.6-1,0-.4.2-.5.4-.4.5-.4a5.74,5.74,0,0,1-2.2-1.2c.2-.7.6-.5.7-.9s0-.7.4-.7,1-.4.6-.6a9.25,9.25,0,0,0-3-.3,3.12,3.12,0,0,1-2.8-1.2,2.09,2.09,0,0,1-1.5.6c-.4,0-4.5-3.6-4.9-4.8a6.94,6.94,0,0,1-.3-2.6c-.2-.5-.5-1.2-.7-1.2a1.49,1.49,0,0,1-.9-.2,1.64,1.64,0,0,0-1-.2c-.4.1-.7-.1-1.3-1.2a5.92,5.92,0,0,0-2.8-2.1,16.77,16.77,0,0,1-3-2.9c-.1-.2,0-.9-.1-1.1s-.6,0-.9-.4-1.8-2.1-2-2.3-.4.2-.7-.4a3.31,3.31,0,0,1,.2-2.6,1.38,1.38,0,0,0,.5-1.3c0-.6,0-1.7.3-2a5,5,0,0,0,.5-2.7c-.1-1.4-.7-1.3-.8-1.3a2.38,2.38,0,0,1-.7-1.7c.1-.3.2-.5,0-.7A2,2,0,0,1,174,98.8Z" transform="translate(0.2 0)"/>
    <path class="cls-4" d="M187.4,123.3c.3-.4,1.2-.7,1.7-1.1s3-3.1,3.7-3.5a12.45,12.45,0,0,1,2.5-1.5c.2,0,.3.1.3,0s-.1-.3.1-.3,1.9.6,1.9.8.1.3.2.4a14.6,14.6,0,0,1,1.8,1.1,18.64,18.64,0,0,0,4.9,2.9c1.2.4,8.6,2.3,9.3,2.3s.1,1.4-.1,1.5-.9-.2-1.1-.3a12.28,12.28,0,0,0-2.4-1c-1-.2-6.5-1.6-9.1-3.1s-4.4-2.6-4.7-2.8a1.43,1.43,0,0,0-1.5.3c-.3.4-2.6,2-2.9,2.4s-2.9,3.1-3.6,3.1-.5,0-.6-.1A2.46,2.46,0,0,0,187.4,123.3Z" transform="translate(0.2 0)"/>
    <path class="cls-5" d="M200.9,136c.1-.7.1-.3.5-.5s.1-.6.4-.8.7-.1.8-.6.3-.6.7-.7a34.92,34.92,0,0,0,3.9-1.9c.4-.4,3.7-3.1,3.9-3.4" transform="translate(0.2 0)"/>
    <path class="cls-5" d="M204.3,133a8.84,8.84,0,0,0,2.3,0c.5-.2,2.9-1.1,3.6-1.5" transform="translate(0.2 0)"/>
    <path class="cls-5" d="M200.5,136.8c0,.5.1,1.7.7,1.8a25.77,25.77,0,0,0,4.5.4,15.69,15.69,0,0,1,2.6.1" transform="translate(0.2 0)"/>
    <path class="cls-5" d="M202.2,134.6c-.4.4-.2.9.5,1.1" transform="translate(0.2 0)"/>
    <path class="cls-5" d="M194.5,131.2c.6-.3,3.9-3,4.1-3.6-1-1.3-2.9-2.6-3.7-3.6a36.82,36.82,0,0,1-2.5-3.5,11,11,0,0,0,4.9,2.5,11.4,11.4,0,0,1,3.4,1.5c1.1-.4,1.8-3.3,1.4-4.4a28.45,28.45,0,0,1-3.8-1.6" transform="translate(0.2 0)"/>
    <path class="cls-5" d="M192.1,119.2c-1-1.6-3.3-6.3-4.1-7.3s-3.7-4.7-6-5.5" transform="translate(0.2 0)"/>
    <path class="cls-5" d="M181.8,105.9c0,1.2,1.7,4.4,1.7,4.9s1.2,3.3,1.3,4.2" transform="translate(0.2 0)"/>
    <path class="cls-5" d="M175.8,103a3.69,3.69,0,0,1,3.1.9" transform="translate(0.2 0)"/>
    <path class="cls-5" d="M175.9,103.7a10.87,10.87,0,0,0,2.7,3.5c.6.5,1.5,2.5,3.1,3.4" transform="translate(0.2 0)"/>
    <path class="cls-5" d="M175.4,106.4c.1.8,1,2.6,1.7,2.9a7.63,7.63,0,0,1,2.3,1.5" transform="translate(0.2 0)"/>
    <path class="cls-5" d="M200.5,132.7a11.21,11.21,0,0,0,4.8-.1" transform="translate(0.2 0)"/>
    <path class="cls-5" d="M200.5,133a1.1,1.1,0,0,0,.6,1.4" transform="translate(0.2 0)"/>
    <path class="cls-5" d="M199.6,133.6a1.14,1.14,0,0,0,.4,1.6" transform="translate(0.2 0)"/>
    <path class="cls-5" d="M175.3,102.5a8.72,8.72,0,0,1-.2-2.6,15,15,0,0,0,.2-2.2" transform="translate(0.2 0)"/>
  </g>
  <g id="_04" data-name="04">
    <path class="cls-2" d="M231.2,108.9c-1.9-.1-5.4,1.7-5.9,1.9s-2.3,1.2-2.3,1.6a2,2,0,0,0-1.4.9c-.2.6-.1,1.3-.2,1.4s-.3.3-.3.8.1.7,0,.8-.4.3-.4.5-.1.8-.2.9a1.33,1.33,0,0,0-.5,1.3c.2.4.4.4.5.3s1.4-1.6,1.5-1.8.3-.7.4-.8.6-.2.6-.5a11.69,11.69,0,0,1,.6-2,6.88,6.88,0,0,1,3.1-.8c1,0,2.8.1,3.1,0S231.6,110,231.2,108.9Z" transform="translate(0.2 0)"/>
    <path class="cls-2" d="M235.4,107.3a5.13,5.13,0,0,1,2.9-1.9,3,3,0,0,1,2.1,1.4C240.4,107,236.5,108,235.4,107.3Z" transform="translate(0.2 0)"/>
    <path class="cls-2" d="M233.5,113.4c-.1,1.2.2,3.5,3.2,3.5,3.8,0,5.2-3.6,4.9-4.8-.2-.7-2.8-1.9-4.3-1.8S233.5,113.1,233.5,113.4Z" transform="translate(0.2 0)"/>
    <path class="cls-2" d="M231.3,113.4c-.1.3-.4.5-.4.8s.1.8.1,1-.3.7-.3,1.1a1.1,1.1,0,0,0,.4.9,1.22,1.22,0,0,1-.3.9c-.2.2-.1,1.2.2,1.1a1,1,0,0,0,.4-.7c.1-.2.4-.7.5-.7a.78.78,0,0,0,.5-.6,3.15,3.15,0,0,1,.6-1.3,13.76,13.76,0,0,0,.4-2.6A11.57,11.57,0,0,0,231.3,113.4Z" transform="translate(0.2 0)"/>
    <path class="cls-2" d="M275,127.5a1.09,1.09,0,0,0-.4,1.2c.1.5.9.9,1.5.9s2.1-1,1.7-1.8S275,127.5,275,127.5Z" transform="translate(0.2 0)"/>
    <path class="cls-2" d="M276,130.1a1.36,1.36,0,0,0-.1,1.6c.3.3,1.5,1,2.2,1.5s.6,1.7,1.2,2.2a5.76,5.76,0,0,0,3.2,1.3,1.25,1.25,0,0,0,1.1-1.2c0-.2-.7-.6-.9-.7a5.29,5.29,0,0,1-1-2,4.13,4.13,0,0,0-1.5-1.9C279.9,130.8,276,130.1,276,130.1Z" transform="translate(0.2 0)"/>
    <path class="cls-3" d="M264.6,99.4a24.24,24.24,0,0,0-2.7,0,28.93,28.93,0,0,0-8.2-.3,21,21,0,0,0-9,3.4c-.9.8-4.4,3.5-4.8,3.8a2,2,0,0,1-1.7.4c-.5,0-.7.4-1.3.4s-3.5,0-4.1-.1a7.89,7.89,0,0,0-1.3-.3,10.25,10.25,0,0,0-2,3.5c-.1.6-.1,2.7.3,3a6.53,6.53,0,0,0,1.4,0,8.09,8.09,0,0,1,2.2,0c.6-.1.6-.6.9-.6s.3.2.7.2,2-1.1,2.5-1.1.9.4,1.6.4,1-.1,1.4.1a13,13,0,0,0,3.7,1.4,2.26,2.26,0,0,0,1.1-.5c.2-.1.7.2,1.2,0a8.42,8.42,0,0,1,2.1-1.1c.5-.1,2.2-.2,3.3-.4a5,5,0,0,0,2.5-.9c1-.1,1.6-1,1.9-1.1a.93.93,0,0,0,1.3-.3c.4-.4.8-.5.7-.8a8.4,8.4,0,0,1,1.2-.4c0,.7.4,2.8,1.3,2.9s6.2.8,6.5,1a1.68,1.68,0,0,0,.9,1.8,5.42,5.42,0,0,0,1.5.2c-.1.7,2.2,1.9,2.4,2-.1.4.4.9,1,1.2-.3.8,1,1.2,1.1,1.7s-.3.5-.3.9.6.7.7,1.3.5,1.7.5,2c.4.2,0,.4,0,.7s0,1,.2,1.2.4.2.3.4-.4-.2-.4.3.2,1.6,0,1.8a1.45,1.45,0,0,1,1.4.2c.1.1.3.9.1,1s-.4.2-.2.4-.4.7-.3,1.1a3.41,3.41,0,0,0,1.9,1.3,39.4,39.4,0,0,0,7.1-.7c1.3-.4,1.8-.6,1.8-1s-1.7-5.5-2.3-7.3-1.9-6.5-2.1-6.9a21.14,21.14,0,0,0-2.2-3.4c-.7-.8-6.3-6.3-6.7-6.6-.3-.7-5.1-4.5-5.4-4.6l-.2-.1c.2-.6.2-1.6-.1-1.8C267.4,98.9,265,98.9,264.6,99.4Z" transform="translate(0.2 0)"/>
    <path class="cls-5" d="M267.2,112.2a39,39,0,0,0,.5-5.8c0-1-.2-3.9-.3-4.3" transform="translate(0.2 0)"/>
    <path class="cls-5" d="M245,102.4a14.43,14.43,0,0,1,8-1.6c2.7.3,6,2.1,7.6,2.2s5.8,1,6.3.8a3.79,3.79,0,0,0,.6-2.2c-.1-.4.4-.6.4-.6" transform="translate(0.2 0)"/>
    <g id="belt-3" data-name="belt">
      <path class="cls-4" d="M258.3,108.7s1.1-.3,1.3-.4a21.16,21.16,0,0,1,.3-6,6.28,6.28,0,0,1,1.7-2.7,9.68,9.68,0,0,1,3-.2,4.58,4.58,0,0,1,1.6-.4,5.27,5.27,0,0,0-3.8-1.2,5.14,5.14,0,0,0-2.5,1.7,13.5,13.5,0,0,0-1.8,6.5A7.21,7.21,0,0,0,258.3,108.7Z" transform="translate(0.2 0)"/>
      <path class="cls-4" d="M273.5,105.7l-.3-.3c-.5-1.7-2.8-3.3-3.5-3.8s-1.4-.9-1.8-1.2a1.49,1.49,0,0,1-.3.7c1.2.8,2.6,2.7,3.1,3s1.8,1,2.2,1.4C273.2,105.6,273.6,105.8,273.5,105.7Z" transform="translate(0.2 0)"/>
    </g>
    <path class="cls-5" d="M276.3,127.5c0-.3,0-.4.3-.4a2.74,2.74,0,0,0-.3-1.9c-.2-.3-.7-1-.4-1.3-.3-.7,0-1.3-.1-1.6s-.8-.2-.9-1.2.4-1.1.3-1.5-1.8-3.1-2.2-3.1-.9,0-1-.3" transform="translate(0.2 0)"/>
  </g>
  <g id="_05" data-name="05">
    <path class="cls-2" d="M346.7,113c-.1.4-.4,1.3.5,1.6s2.2.4,2.5.6a14,14,0,0,0,1.8,1.3c.5.2,1.5.8,1.9,1s2.5.4,2.5-.7c-.3-.7-.9-1-1.8-1.9s-1.5-1.6-2-2a7.35,7.35,0,0,1-1.5-2A24.79,24.79,0,0,0,346.7,113Z" transform="translate(0.2 0)"/>
    <path class="cls-2" d="M353.8,114.7a3.56,3.56,0,0,0,2.5,0c.8-.3,1.9-.5,1.9-.9s.1-1.2,0-1.2a7.38,7.38,0,0,1-1.2-.2,5,5,0,0,0-1.3-.5c-.4,0-1.4-.8-1.7-.8a3.89,3.89,0,0,1-2.1-1.4c-.7-.9-1.9.5-2,.9S353.2,114.7,353.8,114.7Z" transform="translate(0.2 0)"/>
    <path class="cls-2" d="M319.6,129.7c.2.7.5,1.9,2.7,2s4.7-2.5,4.3-4.6-3.1-3.8-3.8-3.8-3.7,3.2-3.7,4.3A5.73,5.73,0,0,0,319.6,129.7Z" transform="translate(0.2 0)"/>
    <path class="cls-2" d="M320.3,131a4.93,4.93,0,0,0,0,2.1c.2.3,1.4.4,1.6.3a4.34,4.34,0,0,1,1.6.7c.3.3.3,1.4,0,1.5a2.08,2.08,0,0,1-1.1.1c-.3-.1-.9-.8-1.3-.9s-.9-.3-.9-.1.2.6,0,.7-1-.4-1.4-.6-.3-.5-.2-.8a2.45,2.45,0,0,0-.3-2.1c-.6-.8,1.2-3.4,1.6-2.8A3.27,3.27,0,0,1,320.3,131Z" transform="translate(0.2 0)"/>
    <path class="cls-2" d="M313.9,132.3a13.87,13.87,0,0,0-.3,4.4,11.54,11.54,0,0,0,1,3.5c.3.4,1.5.5,2,.4s1.2-.6,1.5-.6a2.48,2.48,0,0,1,.9.1c.3,0,1.6-.7,1.6-1.3s-1-.9-1.3-.9c-.9,0-2.3.8-3.2.4-.3-.1,0-1.3.2-1.7a8.36,8.36,0,0,0,1.2-2.3C317.6,133.8,313.9,132.3,313.9,132.3Z" transform="translate(0.2 0)"/>
    <path class="cls-3" d="M313.4,131.7c.3-.7.7-.8.9-1.2a36.46,36.46,0,0,0,1.4-3.5c.1-.5.1-2.1.2-2.6s.4-1.9.5-2.3a24.81,24.81,0,0,1-1.5-7A30.69,30.69,0,0,1,316,108c.2-.4,2.7-5.5,4.1-6.4a21.93,21.93,0,0,0-3.1-3.4c-.5-.4,0-.9.7-1.1s2.9-.8,3.1-1c0-.5.6-.3,1.6-.4.5,0,1-.1,1.2-.1a7,7,0,0,0,.2,1.6,19.88,19.88,0,0,1,.2,2.2,2.15,2.15,0,0,0,.7-.4,2.83,2.83,0,0,1,.4-1.6,4.36,4.36,0,0,0,2-.1,10.89,10.89,0,0,1,5.2-2.3,13.33,13.33,0,0,1,4.3.4c.3,0,7-.3,9,.2a9.53,9.53,0,0,1,2.6,1.6c.4.4,5.3,10,5.5,12.2-.1.8-2.4,1.4-3,1.3a4.18,4.18,0,0,0,.9.3,5.59,5.59,0,0,1-3.7,2.2,4.92,4.92,0,0,1-1.4-.1,4.46,4.46,0,0,1-.7-1.8c-.2-.6-.7-2.2-.4-2.4s0-.6-.3-.7-2.1-1.3-2.1-1.7-.1-1.2.2-1.3-.1-.9-.3-1.1,0-.5-.1-.6a21.89,21.89,0,0,0-2.3.7,26.05,26.05,0,0,1-4.2.4,1.8,1.8,0,0,1-1.2.2c0,.7-.5.6-.6.8a2,2,0,0,1-1.2,1.2,9.36,9.36,0,0,0-2.3,1.3c-.3.2-1,.3-1.2.5a2.33,2.33,0,0,1-2.2-.3c-.3,0-.1.3.1.5s.1,1-.5,1.6a2.42,2.42,0,0,1,.2,2.8,7.27,7.27,0,0,0-1.3,2,13.61,13.61,0,0,1,.6,2.4,13,13,0,0,1-.2,1.7,13.52,13.52,0,0,1-.4,2.9c-.1.2-1.4.9-1.5,1.1s-.2,1.1-.6,1.1a13,13,0,0,0-2.3,1.8c-.3.3-1.3,1.6-1.5,1.7s-.5,0-.5.3c.2.2-.1.6-.2.8a4.23,4.23,0,0,1,.2,1.6,2.65,2.65,0,0,1-.6,1.5,6.16,6.16,0,0,1-1.5,3.5c-.9-.5-1.5-1.4-1.9-1.4s-.9-.6-1.4-1.1A11.67,11.67,0,0,0,313.4,131.7Z" transform="translate(0.2 0)"/>
    <path class="cls-2" d="M320.9,101.3c.1-.5,2.1-1.6,2.4-1.7a6.57,6.57,0,0,1,1.2-.6,9.69,9.69,0,0,1,.3,2.3,11.29,11.29,0,0,1-1.8,1.9c-.3.3-.8.9-1,1.1l-.5-.5c.1-.9-.2-1-.4-1.6S320.8,101.8,320.9,101.3Z" transform="translate(0.2 0)"/>
    <g id="belt-4" data-name="belt">
      <path class="cls-4" d="M327.4,107.9a1.48,1.48,0,0,1-1.6.6,14.08,14.08,0,0,1-4.6-2.7,5.17,5.17,0,0,1-2.1-3.5,4.62,4.62,0,0,1,.7-.7,7.78,7.78,0,0,0,2.3,2.9,22.75,22.75,0,0,1,2.6,1.8c.5.3,1,.9,1.4.9A3.43,3.43,0,0,1,327.4,107.9Z" transform="translate(0.2 0)"/>
      <path class="cls-4" d="M325.5,81.3a1.7,1.7,0,0,1,1.5,1.1,109.13,109.13,0,0,0-5.9,13.2s-.5.5-.6.5c0-.9,1.2-3.5,1.7-4.7s1.9-6.8,2.1-7.4A23.79,23.79,0,0,1,325.5,81.3Z" transform="translate(0.2 0)"/>
      <path class="cls-4" d="M330,81c-.2,1.1-3.6,7.4-3.9,8s-2,3.9-2.2,4.5-.6,1.8-.7,2h-.8a23.94,23.94,0,0,0,1.3-2.4c.2-.5,1.7-4.4,1.9-4.7a25.19,25.19,0,0,1,1.3-4,23.49,23.49,0,0,0,1.6-4.1A2.63,2.63,0,0,1,330,81Z" transform="translate(0.2 0)"/>
    </g>
    <path class="cls-5" d="M314.8,115.3c-.1-2.8,2.4-8.3,3.5-8.9s3-1.9,3.1-2.7-.6-1.6-.6-2.3c.1-1,3-2.3,3.6-2.6" transform="translate(0.2 0)"/>
    <path class="cls-5" d="M322,104.3c1-1.4,3-2.7,5.4-5.9a39.07,39.07,0,0,1,4.1,3.3,18.37,18.37,0,0,0,3.4,2.7" transform="translate(0.2 0)"/>
    <path class="cls-5" d="M350.5,110.6a8.35,8.35,0,0,1-.7-4.3,23.17,23.17,0,0,0-1.3-8.5" transform="translate(0.2 0)"/>
    <path class="cls-5" d="M342.6,103.2a7,7,0,0,1,2.1-4.8" transform="translate(0.2 0)"/>
  </g>
  <g id="_06" data-name="06">
    <path class="cls-2" d="M395.7,133.8a7.12,7.12,0,0,1-.1,1.6.78.78,0,0,0,0,1.1c.4.4.7.8,1,.9s.7-.1.6-.2,0-.5-.2-.6a1.58,1.58,0,0,1,1.3.3c.2.2.8.8,1.2.8s.3-.4.1-.5.3-.1.4-.2a2.54,2.54,0,0,1,.7-.2c.2,0,.7-.4.1-.6s-.8-.3-.9-.4-.3-.3-1.1-.2-1.4-.2-1.4-.4a6.24,6.24,0,0,1,.3-2C398,132.5,395.7,133.3,395.7,133.8Z" transform="translate(0.2 0)"/>
    <path class="cls-2" d="M389.6,138.1c-.1.7,1.1,3.2,1.6,3.8a1.23,1.23,0,0,0,1.1.8,7.22,7.22,0,0,0,2.7-.5,3.69,3.69,0,0,0,1.7-.2c.3-.1.6-1.5.6-1.7s-1.6-.5-2.1-.4a4.12,4.12,0,0,1-.8.3c-.1,0-.9-.1-1,.2s-.4.5-.6.5-.6-.4-.6-1.3C392.2,139.4,389.7,137.7,389.6,138.1Z" transform="translate(0.2 0)"/>
    <path class="cls-2" d="M400.8,131.3a3.62,3.62,0,0,0,2.1,1.5c1.9,0,5.2-.3,5.2-3.7s-3.1-4.2-4.1-4.3S400.4,130.6,400.8,131.3Z" transform="translate(0.2 0)"/>
    <path class="cls-3" d="M402.2,76.4c-1.5.8-4.9,3.7-6.2,4.5s-6.4,4.4-6.6,5.2a43.88,43.88,0,0,0-.4,8.7,31.55,31.55,0,0,0,1,4.7c.1.4.1,5.6.3,6.5a3.59,3.59,0,0,0,.2,1.1c.4,0,.6,1.7.8,4.4-.2.3-.8.5-.9.3a9.58,9.58,0,0,1-.3-3.1c-.9,0-2.7.1-3,.1a10.06,10.06,0,0,0-2.5,1.7,13.13,13.13,0,0,1-.9,1.7c-.2.2-.9,0-.9.3s.5.3.5.4-.3.5,0,.6,3.1-1.4,3.7-1.4,2.5,0,3.1-.1c-.3,1.2-1,2.2-1,2.5s.2,2.4.3,3,.8,2.3,1.1,3.2.9,2.7,1.1,3.1a4.55,4.55,0,0,0,1.6,2.9c-.1.5-1.1,1.4-1.3,1.9s-.2,1.2-.4,1.4a13.61,13.61,0,0,0-1.2,1.8c-.3.8-.9,2.5-1.1,2.9a5.76,5.76,0,0,0-.8,2.1c0,.6,2,1.8,2.4,1.9s1.3.8,1.6.7a6.39,6.39,0,0,0,1.3-1.5c.3-.3.4-1,.5-1.2s.1-.5.6-.7a5.45,5.45,0,0,0-.4-1.9c0-.2.6-.3.9-.2a2.59,2.59,0,0,0,1.8-.7,6.75,6.75,0,0,0,3.6-1.7,29,29,0,0,0,3-3.8,2.48,2.48,0,0,1,.1-.9,10.74,10.74,0,0,0,.7-1.5c.1-.5.1-.8.5-.8s.4-1.3,0-1.4-.8,0-.8-.2-1-3.6-1.2-4.2-.9-1.1-1-1.4.8-2.1.7-2.8-1.3-1.6-1.3-1.9.2-.8,0-1.1a3.38,3.38,0,0,0-1.6-.7V110a5.22,5.22,0,0,0,2.6-1.9c.1-.6,0-4.5-.3-4.9,0-.4-.3-.8-.3-1s.4-.2.4-1.8-.7-7.7-.7-8a2.43,2.43,0,0,0-.3-1.1c.4-.4.8-.5,1-.8a2,2,0,0,0,.3-.8c.5,0,.4.3,1.1,0s.9-.2,1.1-.5a4.3,4.3,0,0,0,.5-1.6c0-.7.4-.6.7-.8s.3-.6.6-.6.6-.2.8-.7.6-.5,1.1-.6a11.51,11.51,0,0,0,2-1.4,1,1,0,0,1-1.2-.3c-.5.5-1.2.3-1.2-.3a8.3,8.3,0,0,0-1.6-4,9.16,9.16,0,0,0-1.8-1.2A4.58,4.58,0,0,1,402.2,76.4Z" transform="translate(0.2 0)"/>
    <path id="belt-5" data-name="belt" class="cls-4" d="M399.7,110.9v-.7a14.19,14.19,0,0,1-4.4,1.3,38.82,38.82,0,0,0-4.1.3,8.94,8.94,0,0,0-2.9,1.2c-.5.5-4.3,4.6-4.7,5s-2.9,3.2-3.3,3.6a10.19,10.19,0,0,0-1.6,2.2,2.43,2.43,0,0,1,1,.2,8.2,8.2,0,0,0,1.2-1.6c.2-.3,3.1-3.5,3.5-3.8s4.2-4.1,4.5-4.3c-.3.7-2.1,2.8-2.4,3.8s-3.6,5.9-4.1,6.7a37.34,37.34,0,0,0-2.2,4.6,3.07,3.07,0,0,0,1.3.5,53.29,53.29,0,0,1,3.3-8.7c.2-.3,1.8-2.8,2.2-3.3a15,15,0,0,0,2.1-2.6c-.1-.8-.1-1,.1-1.1a19.28,19.28,0,0,1,4.4-1,20.43,20.43,0,0,0,4.1-.8C398.2,112,399.5,111.4,399.7,110.9Z" transform="translate(0.2 0)"/>
    <path class="cls-5" d="M391.5,123.8c-.4-1.5-1.2-4.4-1.3-5.4s0-4.6.4-5.3" transform="translate(0.2 0)"/>
    <path class="cls-5" d="M394.4,133.9a17.88,17.88,0,0,1-.3-5.2" transform="translate(0.2 0)"/>
    <path class="cls-5" d="M408.1,83.3a1.31,1.31,0,0,1-1.3.3,2.83,2.83,0,0,1-1.7,1.1c-.6.1-.8.7-1.3.5a4.77,4.77,0,0,1-2,.4,5.24,5.24,0,0,1-1,1.1c-.4.4-.6.8-.9.8a2.65,2.65,0,0,1-1.4,1.8,3.59,3.59,0,0,1-.2,1.8,7.32,7.32,0,0,1-.4,2.7c0,.6.9,2.1,1.1,3.8s1.7,3.3,1.6,5.4" transform="translate(0.2 0)"/>
    <path class="cls-5" d="M391.3,111.7a13.27,13.27,0,0,0-.4-4.3,6.49,6.49,0,0,1-.4-3.2,9.63,9.63,0,0,0,3.4,0,24.76,24.76,0,0,1,4.8-.6c1.6-.1,3.1-.8,3.4-1.4" transform="translate(0.2 0)"/>
    <path class="cls-2" d="M390.6,107.1c-.4.4-.6,2.6-.6,3.2a4.12,4.12,0,0,0,.4,1.7,4.5,4.5,0,0,1,.8-.2,15.26,15.26,0,0,0-.2-3.9C390.8,107.3,390.8,107,390.6,107.1Z" transform="translate(0.2 0)"/>
    <path class="cls-2" d="M409.3,73.7c.4-.1.4,1.1.4,1.3.4.3,1.8,2.1,1.8,3s-.3,2.1-.3,2.6.5,1.1.4,1.8a1.71,1.71,0,0,1-1.5,1.3c-.7.1-.7.1-1.1-.4a14.25,14.25,0,0,1-.7-5.2C408.6,77.2,408.8,73.8,409.3,73.7Z" transform="translate(0.2 0)"/>
    <path class="cls-7" d="M405.8,78.5a13.22,13.22,0,0,1,1.3-3c.3-.3,1.3-1.3,1.3-1.6s0-.6.1-.6.8,0,.9.5.1.7,0,.8c0,.3-.4.6-.4.7s.3.5.2.9a3.92,3.92,0,0,0-.2,1.3,7.39,7.39,0,0,0,0,2.1,11.16,11.16,0,0,1,.6,2.6,1.66,1.66,0,0,1-.5,1.2c-.3.2-.9.6-1.2-.3C407.6,82,407.2,79.6,405.8,78.5Z" transform="translate(0.2 0)"/>
  </g>
  <g id="_07" data-name="07">
    <path class="cls-2" d="M470.4,108.5a2.11,2.11,0,0,1,1.1-.4,23.05,23.05,0,0,0-1.8-2.3C469.1,105.7,469.6,107.5,470.4,108.5Z" transform="translate(0.2 0)"/>
    <path class="cls-2" d="M487.6,118.6a7.47,7.47,0,0,1,2,.3c.5.2,4,.9,3.5,4.5s-3.6,3.6-5.1,3.4a3.42,3.42,0,0,0-2.1.2,4.6,4.6,0,0,1-2.3-1.5C483,124.9,486.8,118.7,487.6,118.6Z" transform="translate(0.2 0)"/>
    <path class="cls-2" d="M472.5,133.4a47.34,47.34,0,0,0,.1,6.7c.3.5,1.5,1.5,1.6,1.9s-.5.3-.2.7a2.08,2.08,0,0,0,1.2.5c.3,0,1.1-.6,1.1-.8a5.54,5.54,0,0,0-1-2.4c-.6-.7-1.2-1.1-1.2-1.5a15.26,15.26,0,0,1,1.4-3.9C475.9,134.2,472.7,132.4,472.5,133.4Z" transform="translate(0.2 0)"/>
    <path class="cls-2" d="M475.6,135.2c0,.6,0,2.4.3,2.5a.63.63,0,0,0,.6,0c0,.6-.1,1.6.1,1.7s.7-1,.8-1.2a1.87,1.87,0,0,0,.8-1.7,10.15,10.15,0,0,0-.5-2.9c-.2-.6-.6-.6-.9-1.5C476.7,131.3,475.6,134.7,475.6,135.2Z" transform="translate(0.2 0)"/>
    <path class="cls-2" d="M455.9,92.5c-.3-.7-.9-2.2-1.8-2s-1.4,1.1-1.9,1.2-2.3.6-2.9,1.5a6.85,6.85,0,0,0-1.1,1.8c0,.3,0,1.6.5,1.6a15.87,15.87,0,0,0,2-.7,6.1,6.1,0,0,1,3-.1C454.1,96.1,455.9,92.5,455.9,92.5Z" transform="translate(0.2 0)"/>
    <path class="cls-2" d="M447.5,93.8c.1-.4-.8-2.1-1.8-1.9s-2,1.9-2.8,2.6-3.3,2.6-3.4,3-1.6,1.6-1.1,2.1,1.2-.3,1.8-.4,3,0,3.5-.4A59.87,59.87,0,0,0,447.5,93.8Z" transform="translate(0.2 0)"/>
    <path class="cls-3" d="M447.5,93.8c-.7-.4-1-.4-1.2-.2s-1.9,1.3-2.3,1.6a4.62,4.62,0,0,0-1.7,1.7c-.3.5-.8,1.3-.6,1.9s-.4,1.3-.4,1.6,1.3,1,2.4,1.8,5.8,5.4,7,6.2,3,2.7,4.4,2.7,6.3-1.9,6.7-2.1a2.29,2.29,0,0,0,1.9-.5c.7-.2,4.4-2.2,4.8-2.4s1-.6,1.3-.1,1.7,1.8,1.7,2.1c-1.3.4-3.2,1.7-2.8,2.6s1.7,3.9,2.4,4.4c.4-.4.6-.4.8-.4-.1.6,1,1.2,1.3,1.9s1.8,3.9,2.1,4.3c-.1.7-.2,1.5.3,1.7a6.13,6.13,0,0,0-.8,2.8,8.45,8.45,0,0,1-1.2,3.3,14,14,0,0,0-1.8,3.4,4.6,4.6,0,0,0,4.1,3.1c1.7-1.9,4.9-6.2,4.9-6.6a22.48,22.48,0,0,1,0-2.6c.7.3,1.3,1.4,2.1,1.3a1.27,1.27,0,0,0,1.1-1c0-.3,2.4-2.8,2.5-3.4a7,7,0,0,1,.2-1.6,10,10,0,0,0,.8-1.4c.1-.5.1-1.3.4-1.4a2.81,2.81,0,0,1,.8-.1c0-.9-.4-1-.5-1s-.6.1-.7,0c.2-1.1-1.2-4-2.5-4.7.3-2.3-2.4-6.1-4.5-6.9-.1-.5-.7-1.6-.7-1.8.6-.3.8-1.2.6-2.6a4.07,4.07,0,0,0-1.3-2.8c-1.1-1.2-2.1-2.5-2.7-2.4a6.55,6.55,0,0,0-1.8.5c-1-1.2-3.1-1.8-5-1.7s-8.4,3.4-8.8,3.6c-.2-.7-1.1-.6-1.3-.6-.1-.9-.9-1.1-.9-1.2.3-.6-.6-1.1-1.3-1.9a5.14,5.14,0,0,0-1.2-2.1c-1,.6-2.9,2.3-2.9,3.4a.6.6,0,0,1,.3.8c-.1.2.4.5.8.6a6.09,6.09,0,0,0,1,2.8,1.36,1.36,0,0,1-1.3.5c-.1-.4-.8-.7-1.3-.7.2-.6-.6-.8-.8-.7,0-.4-.8-.4-1-.7s-.1-1.2-.4-1.5-.8-.3-.9-.6-.2-1.4-.6-1.6-.5,0-.8-.2C447.5,94.3,447.6,94.3,447.5,93.8Z" transform="translate(0.2 0)"/>
    <path class="cls-5" d="M455,100.1a7.49,7.49,0,0,1,2.7-.8,16,16,0,0,0,2.9-1.1" transform="translate(0.2 0)"/>
    <path class="cls-5" d="M452.6,100.5c-.3.4-.1,1.4.3,2.2a22.5,22.5,0,0,1,1.5,5.4" transform="translate(0.2 0)"/>
    <path class="cls-5" d="M451.9,100.3c-.7.3-.9,2.3-.9,2.7" transform="translate(0.2 0)"/>
    <path class="cls-5" d="M449.8,97.5a.74.74,0,0,0-1-.5,3.31,3.31,0,0,0-1.2,2.3" transform="translate(0.2 0)"/>
    <path class="cls-5" d="M450.3,108a47.09,47.09,0,0,1-5.1-5.8,13.87,13.87,0,0,0-2.9-3.2" transform="translate(0.2 0)"/>
    <path class="cls-4" d="M471.8,114.4a12.23,12.23,0,0,0-2.3-3.2,3.08,3.08,0,0,1,1-2.3,27.35,27.35,0,0,1,5.2-3.2,21.13,21.13,0,0,0,4-2c.3.7.6,1.4.7,1.7a55.85,55.85,0,0,1-5.5,2.8c-1.5.8-3.5,1.6-3.6,2.9A10.57,10.57,0,0,0,471.8,114.4Z" transform="translate(0.2 0)"/>
    <path class="cls-5" d="M475.2,120.6a3.41,3.41,0,0,0-.7-2.2,3.73,3.73,0,0,1-1-2.1c0-.5.4-.7.1-1.2s-1.5-1.9-1.6-3.3,0-1.7.3-1.9" transform="translate(0.2 0)"/>
  </g>
  <g id="_08" data-name="08">
    <path class="cls-2" d="M560.3,126.1a7.63,7.63,0,0,0,3.4.6c.8-.1,4.2-.9,4.7-2.7s.8-5.1-2-6.2a7,7,0,0,0-5.5,0C559.5,118.7,560.3,126.1,560.3,126.1Z" transform="translate(0.2 0)"/>
    <path class="cls-2" d="M551.9,135.3a9.92,9.92,0,0,1,.3,1.5c0,.3-.3,1.2,0,1.2a1.08,1.08,0,0,0,.6-.1c.1.8-.1,1.7,0,2s.9-.1,1.1-.7a8.26,8.26,0,0,0,0-3.5c-.3-.7-.8-2.2-1.1-2.2S551.9,135.3,551.9,135.3Z" transform="translate(0.2 0)"/>
    <path class="cls-2" d="M550.8,135.2c0,.5-.2,2.9-.1,3.2s1,1.6,1,2.1,0,1.5-.5,1.6-2.6.3-2.7-.4.4-.6.5-.8-.5-.6-.5-1c0-.9.4-.9.4-1.3s-1.1-3.8-.9-5S550.8,135.2,550.8,135.2Z" transform="translate(0.2 0)"/>
    <path class="cls-2" d="M522.2,120.3c-.6-.2-3,0-1.6,2.7s2.3,6.6,3.3,6.9,1-.3,1-.6-1-1-1-1.5C523.7,127.3,522.7,120.5,522.2,120.3Z" transform="translate(0.2 0)"/>
    <path class="cls-2" d="M518,131.7c.2.9-.4,2.2-.3,2.7a17.72,17.72,0,0,0,.1,2.4c.2.4.5,1.1,0,1.2s-1.2-.4-2.2-1.9-1.6-1.7-1.7-2.4.1-3.9.1-4.6C514.2,128.5,517.9,131.3,518,131.7Z" transform="translate(0.2 0)"/>
    <path class="cls-3" d="M518,131.8a2.65,2.65,0,0,0,1-1.5,4.91,4.91,0,0,1,2.4-1.4,27.13,27.13,0,0,0,4.1-.9c.6-.2,2.6-.3,3.6-.5s3.3-1,3.6-1.5,2-1.9,2.1-2.4c2.3.1,4.9-.3,5.6-1.8a29.21,29.21,0,0,0,1.4-3.6c.7,1,1.7,1.9,2,1.9s.5-.3.6-.3.3.6.6.5a6,6,0,0,1,1.9,0,18.64,18.64,0,0,1,2.1,1.4,27.47,27.47,0,0,1,2.3,2.1c.2.4-.4,1.2-.8,1.9s-.4,1.6-.9,2.2-.9,2.7-1.4,3.3a2.53,2.53,0,0,0-.6,2.1,3.19,3.19,0,0,0,2.4,2.5,2.87,2.87,0,0,0,3-1.2c.2-.5.6-1.2.9-1.3s.4-.5.3-1.2c1.4-.6,3.8-2.9,4.4-3.4s1.2-.7,1.3-1a27.21,27.21,0,0,0,1.6-2.5,4.9,4.9,0,0,1,.7-1.9,4.6,4.6,0,0,0,0-2.6c.4-.7.7-3.2,1-3.4a4.17,4.17,0,0,0,.6-.2c0-.5-.7-.7-1-.6s-.3.3-.4.2-.2-1.4-1.2-1.9a6.65,6.65,0,0,0-2.6-2c-.9-2.5-5-4.5-7.5-4.7-.5-.6-.9-1.2-1.1-1.4.6-.8,1.5-2.7,1.1-3.9a28.77,28.77,0,0,0-2.2-2.7c-.6-.5-3.1-.8-5.7,1.2a8.05,8.05,0,0,0-2.1,2,10.11,10.11,0,0,0-3.8.3c-.6.4-3,1.7-3.7,2.8s-1.9,2.8-2.7,4.1-3.6,5.6-4.4,6.7a7.27,7.27,0,0,1-1.9,2c-.4.2-2.1.5-2.3.6a1.23,1.23,0,0,0-.1,1c-.7.4-2.3,3.2-2.9,4.2a4.5,4.5,0,0,1-2.1.3c-.4.5-1.8.5-2,1a4.07,4.07,0,0,1-1.2,1.4,1.81,1.81,0,0,0,.8,2.7C515.5,130.1,516.3,130.1,518,131.8Z" transform="translate(0.2 0)"/>
    <path class="cls-5" d="M522.2,121a31.12,31.12,0,0,0,3-2" transform="translate(0.2 0)"/>
    <path class="cls-5" d="M534.8,123.7c.7-.9,4.2-7.2,4.3-7.6s1.7-.8,1.9-.8" transform="translate(0.2 0)"/>
    <path class="cls-5" d="M542.9,113.9a2.62,2.62,0,0,0-2.1,3,4.16,4.16,0,0,0,1,1.4" transform="translate(0.2 0)"/>
    <path class="cls-5" d="M550.8,123.4c-.1-.8-1-1.3-1.7-1.9s-4.6-4.9-5.5-6.8-5.7-6.3-6-6.6c.5-1.9,2.6-3.1,3.5-4.6" transform="translate(0.2 0)"/>
    <path class="cls-2" d="M541.5,112a3.87,3.87,0,0,0-.1,2.8c.1.3,1.8-1,1.9-1.2A6.9,6.9,0,0,0,541.5,112Z" transform="translate(0.2 0)"/>
    <path class="cls-4" d="M550,107c-1.3.3-4.1,2.7-4.4,3.2s-2.8,2.8-2.9,4.5a16.64,16.64,0,0,0,0,2.5,2.88,2.88,0,0,0,1.2,1.4,5.83,5.83,0,0,1,2.3,2.4c.7,1.4,3.9,1.6,3.9,1.6l-.9-.8s-2.1-.4-2.4-.9a11.38,11.38,0,0,0-1.5-2.4c-.7-.8-1.6-2.7-.8-3.9s2.8-4.2,4.4-5a4,4,0,0,1,2.2-1.2Z" transform="translate(0.2 0)"/>
  </g>
  <g id="_09" data-name="09">
    <path class="cls-2" d="M613.4,92.3c.4-.6,1-.6,1.1-1.2a2.75,2.75,0,0,1,3-2.7c2.7,0,5.9,1.6,5.3,4.9-.4,1.7-1.3,2.3-1.8,2.4s-.7,1.5-.9,1.8a12.93,12.93,0,0,1-4.2,1.1A16.36,16.36,0,0,1,613.4,92.3Z" transform="translate(0.2 0)"/>
    <path class="cls-2" d="M617.3,106.1c.3-.1,1.3,1.5,2,1.7s2.4.5,3.1.8a6.35,6.35,0,0,1,2,2.1c0,.3-.5.7-.7.7a11.3,11.3,0,0,1-2.2-1.1c.6.6,1.4,1.5,1.3,1.6s-.4.3-.9-.2-.7-1-1.2-1.1-1.8-.4-1.9-.7-.2-.7-.3-.7a17.73,17.73,0,0,1-3.6-1.3C615.1,106.7,616.3,106.3,617.3,106.1Z" transform="translate(0.2 0)"/>
    <path class="cls-2" d="M617.1,111.3c.8.4,1.1.6,1.4.6a3.45,3.45,0,0,1,1.7.1c.8.3,1.7,1,1.7,1.3a1.52,1.52,0,0,1-.3,1.2c-.4.5-1.3,1.6-1.7,1.5s-.4-.6-.4-.7c-.6-.1-1.7-.6-1.9-1.3-1.4-.1-3.9-.4-4.4-.5A6.86,6.86,0,0,1,617.1,111.3Z" transform="translate(0.2 0)"/>
    <path class="cls-2" d="M590.5,139.8c1.4.3,1.6,1.5,1.3,1.7a12.5,12.5,0,0,1-1.9.3,7.92,7.92,0,0,1-3.1,0,5.87,5.87,0,0,1-2.3-1.6c-.4-.5-1.2-.4-1.3-.7s-.3-2,.7-2.2,2.6-3.2,2.8-3.5a10.11,10.11,0,0,0,2.4,1.2c-.8.9-1.8,2.8-1.4,3.3A11,11,0,0,0,590.5,139.8Z" transform="translate(0.2 0)"/>
    <path class="cls-2" d="M596,134.2a2.79,2.79,0,0,0,2.1-.3c.2-.3.1-.8-.6-.9a3.88,3.88,0,0,1-1.9-.6C595.1,132.1,595.6,134,596,134.2Z" transform="translate(0.2 0)"/>
    <path class="cls-3" d="M617.2,103.6c.2-.8-.3-1.6-.8-1.6,1.2-1,1.3-2.9,1.4-3.6-1.5.4-1.4.4-1.8.3a3.59,3.59,0,0,0-.6-3c-.5-.6-1.5-2.5-1.9-3s.6-1.3.9-1.4a2,2,0,0,0-1.6-.5c-.4.1-1.5.6-2.2.9s-4,1.9-4.8,2.3a27.1,27.1,0,0,0-4.1,2.3,6.46,6.46,0,0,1-2.2,1.4c-.3,0-2.8-.9-3.5-.8a10.18,10.18,0,0,1-3.3.6c-1,1.4-2.1,2.3-2.6,3.1a2.58,2.58,0,0,0-.5,2.1c.1,1,0,3.6.2,4a1.72,1.72,0,0,1,.1,1.4,17.29,17.29,0,0,0-.5,4.2c0,2.2-.6,3.9-.5,5.6a17.86,17.86,0,0,1-.6,5.4c-.5,1.1-.5,5.6-.5,6.4a2.61,2.61,0,0,1-.3,2,12.23,12.23,0,0,0-1.7,2.9c-.5,0-.9.9-1,1.2-.6.1-1,1.2-1,1.7a2.74,2.74,0,0,0,2,1.9,18.88,18.88,0,0,0,4.1.3c1-.1,1.3.8,2.1,1a3.07,3.07,0,0,0,2.4-1.7,9,9,0,0,1,1.1-3.4c.5-1.2.9-2.6,1.3-2.8a5.55,5.55,0,0,1,2.1.3c.6-1.3,1.6-1.7,2-2.5s1.4-3.5,1.9-4.2a7,7,0,0,0,1.7-2.8c.3-1.1-.2-6.2-.9-7.5a8,8,0,0,0,2.6-4.2,2.44,2.44,0,0,1,.8-1.7c.3-.4-.1-.8.3-1s.9-.6,1.2-.6c.4,1.4,2.1,5.2,2.7,5.5s4.4-1,6-2.9c-.4-.3-1.1-.4-1.2-.7a10,10,0,0,0-.2-1.6c-.2-.4-.8-.6-.8-.8a1.71,1.71,0,0,1,.8-1.4,2.85,2.85,0,0,1,1.9-.4c0-1-.2-.9-.2-1A6.53,6.53,0,0,1,617.2,103.6Z" transform="translate(0.2 0)"/>
    <path class="cls-2" d="M596.6,108.4c-.5.2,1.3,1.3,2.3,1.4-.1-1.1-.3-1.7.4-2.7A10.33,10.33,0,0,1,596.6,108.4Z" transform="translate(0.2 0)"/>
    <path class="cls-4" d="M609.1,110.7h0a5,5,0,0,1-3.2,1.2,3.85,3.85,0,0,1-1.7-.8c-1.5.1-2.3.2-4.8-2.5s-4.2-6.1-3.8-7.8c.8-.4,1.3-.6,1.7-.8a11.29,11.29,0,0,0,3.2,7.3,9.21,9.21,0,0,0,3.3,2.6c.2,0,.8-.2,1-.2s0,.2.2.4a3.23,3.23,0,0,0,1.6.3,3.12,3.12,0,0,0,1.8-.7.35.35,0,0,0,.1-.2Z" transform="translate(0.2 0)"/>
    <path class="cls-4" d="M615.8,110.1c0-.2.3,0,.5,0,1-.1,3.1-1.4,3.9-1.5a6.9,6.9,0,0,1,2.5,0,10.62,10.62,0,0,1,.1,1.5,8,8,0,0,0-4.4.3,6.89,6.89,0,0,1-2.4.4C616.1,110.8,615.8,110.7,615.8,110.1Z" transform="translate(0.2 0)"/>
    <path class="cls-4" d="M615.6,104.4a9.25,9.25,0,0,1,1-.5,49.63,49.63,0,0,1,5.6-1.5c.3,0,.9.5,1.3.7-.9.3-5.4,1.8-8.1,2.8Z" transform="translate(0.2 0)"/>
    <path class="cls-5" d="M589.8,107.7a12.25,12.25,0,0,1,.4,2.8,38,38,0,0,0,9.1-3.4,6.05,6.05,0,0,0,0,4.2c.4,1.2.1,4.7.4,5s3.1,0,3.8-.3" transform="translate(0.2 0)"/>
    <path class="cls-5" d="M600.7,107.7a10.34,10.34,0,0,0,7.3-.3c-.6-2.2-.9-6.2-1.3-7.1" transform="translate(0.2 0)"/>
    <path class="cls-5" d="M615.3,107.1c0-.9.4-2.8.4-3.5s.3-1.9.3-2.7.2-1.9.2-2.2" transform="translate(0.2 0)"/>
    <path class="cls-8" d="M615.9,101.9a4.13,4.13,0,0,0,.9-1.9,4.74,4.74,0,0,0,0-1.3" transform="translate(0.2 0)"/>
    <path class="cls-5" d="M596.5,132.6a11.36,11.36,0,0,0,.6-3.9,12,12,0,0,0,1.6-4.6,16.15,16.15,0,0,0,.2-3.5,7.39,7.39,0,0,1-.4-3,26.89,26.89,0,0,0,.3-5" transform="translate(0.2 0)"/>
    <path class="cls-5" d="M599.6,97.7c-.5.3-1.3.8-1.6.6s-.1.7-.3.8,0,.7-.5.8-1,.6-1.3.3-.2-.9-.9-.9-.3-.7.1-1.2" transform="translate(0.2 0)"/>
    <path class="cls-5" d="M597.2,99.9c-.1-.7.1-1.3-.4-1.8s-.8-.9-.3-1.1" transform="translate(0.2 0)"/>
  </g>
  <g id="_10" data-name="10">
    <path class="cls-2" d="M686.2,85.4c.2-.7.8-4.1.9-5.1a3.22,3.22,0,0,1,3.4-3c2.6,0,4.3,2,4.4,3.3s-1.7,5.3-2.4,6.3-1.8,2.1-2.3,2c-.1.7-.1,3.4-.3,4.1C689.6,89.7,688,88,686.2,85.4Z" transform="translate(0.2 0)"/>
    <path class="cls-2" d="M678.6,130.3c-.3.5-.8.8-.6,1.5.3,1.2,1.9.8,3.1,1.2s1.8,1.5,2.4,1.6a4.65,4.65,0,0,0,1.2,0c.3,0,.4.2.9.2a.86.86,0,0,0,.8-.7c0-.3-.8-1.1-1.3-1.2a5.34,5.34,0,0,1-1.8-.5c-.4-.2-1.1-.7-1.2-1.3Z" transform="translate(0.2 0)"/>
    <path class="cls-2" d="M664.9,136.4a5.3,5.3,0,0,1-.8,1.7,1.15,1.15,0,0,0,0,1.6c.6.8.1,2.1.4,2.4a4.37,4.37,0,0,0,3,.9c1.5-.1,2.1-.4,2.1-.7s-.7-.7-.8-1-.5-2.3-1.1-2.7a1.39,1.39,0,0,1-.2-1.8C667.8,136.4,664.9,136.4,664.9,136.4Z" transform="translate(0.2 0)"/>
    <path class="cls-3" d="M686.4,84.5c-.6-.1-.8-.2-.9,0s0,.4-.6.3-1.2.5-1.7.8-3.7,2.5-4.1,2.8a4.07,4.07,0,0,0-1.3,1.9,29.56,29.56,0,0,1-1.3,4.5c-.3.3-1.1.4-1.4,1.2s-.4,1.9,0,2a1.88,1.88,0,0,1,.9.4c.2.2-.8,1.5-1.3,1.4s-1.8,1.7-2.2,2.2-.8,1.9-1.3,2.5-1.1,1.8-1.3,2c.7.6.5.7.5.8s-.7,4.9-1,5.8a39.06,39.06,0,0,0-1,6.4,17.35,17.35,0,0,1-.1,3.3c-.2.9-1.7,5-2,6.2s-.9,4.5-1,5.1a16.25,16.25,0,0,0-.4,1.9c0,.5-.3.7-.5,1a3.3,3.3,0,0,0,.4,2.1,14.24,14.24,0,0,0,4.2,1.7c.7,0,2.8.1,3.1,0s.5-1.5.5-2.2-.2-1.7-.2-2,1.9-3,1.8-4.2a19.49,19.49,0,0,1,.1-4.9c.2-.7.9-2.5,1.1-3.1s-.1-.9.1-1.3,1.3-1.1,1.5-2.1a20.23,20.23,0,0,0,.9-2.9,1.91,1.91,0,0,1,.7-1.4,3.69,3.69,0,0,1,1.3,2.2c.2.3,1.2,1.3,1.1,1.6s-.3,2.9-.5,3.5.2,1.1,0,1.3a10.4,10.4,0,0,0-1.9,2.2c0,.4.3.5.1.9a26.72,26.72,0,0,1-.9,2.6,27.27,27.27,0,0,1,2.8,2,7,7,0,0,0,2.4.9c.8-.5,3.5-6.1,3.8-6.6s3.2-6.1,3.1-7.2a44.87,44.87,0,0,0-2.9-7.5c.7-.2.9-.6.9-.7-.5-.5-.9-.8-.9-.9a.52.52,0,0,0,.4-.2,2.34,2.34,0,0,1,.9-2.6c-.2-1.2-1.7-1.7-2-2.3a8.27,8.27,0,0,0,1.6-1.8,13,13,0,0,1,1.3-1.9c.4-.4,1.8-1.4,1.9-1.9a4.65,4.65,0,0,0,0-1.2c1.2-.1,1.1,2.5,1.7,2.7a5.09,5.09,0,0,0,1.4.4,1.87,1.87,0,0,0,1.1,1.6c.3,0,1.2-.1.9-2.8s-.5-5.5-.6-6,.2-1.1.1-1.3-1-1.2-1.2-1.5-.3-1.3-.7-1.8a15.14,15.14,0,0,0-2.2-2.2c-.7.2-1.2.6-1.2.8a20.22,20.22,0,0,1-.2,4.1,11.12,11.12,0,0,0-2.3-5.9,12.62,12.62,0,0,1-1.4-2A5.64,5.64,0,0,0,686.4,84.5Z" transform="translate(0.2 0)"/>
    <path class="cls-2" d="M690.9,99.4c.8,0,2.7.1,3.2.1s1.7-.5,2.3-.5a4.44,4.44,0,0,1,2.3.8,5.72,5.72,0,0,1-.8,2.7c-.3.1-.8-.2-1.1-.2a5.84,5.84,0,0,1-1.8-.2,4.25,4.25,0,0,0-1.7-.5c-.6,0-3.2.9-4.5.9A25.94,25.94,0,0,1,690.9,99.4Z" transform="translate(0.2 0)"/>
    <path class="cls-2" d="M693.2,99.4a2.39,2.39,0,0,0,.7-1.3c0-.3-.3-.4-.4-.7s.2-2.1.9-2.1,0,.9.5.9.9-1,1.3-1.1a.6.6,0,0,1,.6.7.71.71,0,0,1,.9.7c.5.1.4.7.3.8s-1.2.5-1.1.8.9.1,1.2.2a.43.43,0,0,1,.1.7,2,2,0,0,1-1.1,0,2.16,2.16,0,0,0-1.1-.1,13.89,13.89,0,0,1-1.9.6A2.48,2.48,0,0,0,693.2,99.4Z" transform="translate(0.2 0)"/>
    <path class="cls-4" d="M692.4,105.1a.58.58,0,0,0-.4.1c0,1.8-.9,3.4-1.6,3.4a3.32,3.32,0,0,1-1.4-.2,3.53,3.53,0,0,0,1.1-2.7c-.3.2-.3.2-.4.2-.2.7-.8,2.2-1.2,2.3-1-.9-2.7-1.7-2.2-2.3a4.83,4.83,0,0,0-2.4-.2,29.51,29.51,0,0,1-6-4,6.46,6.46,0,0,1-2-2.9.75.75,0,0,0-.6.3c-.3.9-.6.6-.7.9a7.29,7.29,0,0,0,2.7,3.6c1.2.8,4.1,3.2,4.5,3.4a4.83,4.83,0,0,1,1.4.9c.2.3.7.5.7.9s1.2,1.2,2.4,1.2a3.26,3.26,0,0,0,2-.7c1,.5,2.5.6,3,.1A5.56,5.56,0,0,0,692.4,105.1Zm-7.6,3.2c-.8-1.1-.3-1.5-.2-1.6s1.1-.7,1.1-.4,1.9,1.7,2.2,2.3A2.34,2.34,0,0,1,684.8,108.3Z" transform="translate(0.2 0)"/>
    <path class="cls-5" d="M670.3,107.3a6.89,6.89,0,0,0,1.9,2.2c.7-2,4.8-6.7,5.7-6.9-.5,2.2-2.3,8.2-2.6,8.7a9.26,9.26,0,0,0,6.2,1.5,22.69,22.69,0,0,0,5.8-2" transform="translate(0.2 0)"/>
    <path class="cls-5" d="M679.4,103.1a14.58,14.58,0,0,0,3.3.7,5.18,5.18,0,0,0,3-.6" transform="translate(0.2 0)"/>
    <path class="cls-5" d="M679,94c.9.7.9,2.7,1.1,3.4s-.1,2.1,1,2.4,1.5.3,1.7.8a1.76,1.76,0,0,0,.9,1,27.46,27.46,0,0,1,2.6,2.2c.4.3,1.4,0,1.7-.3" transform="translate(0.2 0)"/>
    <path class="cls-5" d="M685.7,91.5a5.39,5.39,0,0,1,1.3,1.9,22.45,22.45,0,0,1,.3,2.4,4.65,4.65,0,0,0,0,1.2c.7-.3,1.4.5,1.6.9a2.83,2.83,0,0,0,2,1.4" transform="translate(0.2 0)"/>
    <path class="cls-5" d="M688.6,97.4a14,14,0,0,0,1.4-5" transform="translate(0.2 0)"/>
    <path class="cls-5" d="M678.4,116.7a33.89,33.89,0,0,0,1.8-3.9" transform="translate(0.2 0)"/>
    <path class="cls-5" d="M678.8,116c.9.3,2.7,3.2,3.2,3.9" transform="translate(0.2 0)"/>
    <path class="cls-5" d="M679,115.6c.8.3,1.7,1.5,2.1,1.8" transform="translate(0.2 0)"/>
    <path class="cls-5" d="M679.2,115.2c.7.1,2.6,1.6,3.8,1.9" transform="translate(0.2 0)"/>
  </g>
  <g id="stance">
    <path class="cls-2" d="M23,14.5c.2-.7-.7-2.9-.8-4,0,0-1.2.2-2.1.4a5.92,5.92,0,0,1,2.1-.5l.4-.2a7.84,7.84,0,0,0,1.1-1.8,1.79,1.79,0,0,0-.6-1.6,8.49,8.49,0,0,0,.3-.9c.2-.5-.4-.8-.8-.9-.6-1-1.2-.8-1.6-.7a23.45,23.45,0,0,0-3.2,3.1c-.1.3,0,.6.1,1.6a2.7,2.7,0,0,0,1.2,2.1c0,2.2-1.2,4.8-.1,6.9C20.3,18,22.8,15.1,23,14.5Z" transform="translate(0.2 0)"/>
    <path class="cls-2" d="M54.3,66.3a4.28,4.28,0,0,0-1.8-.5c-.8,0-1.2-1.3-1-1.9a3.91,3.91,0,0,0,.2-1.7.9.9,0,0,1,0-1,5.93,5.93,0,0,0-.3-2,9.92,9.92,0,0,1,3.8-.4c-.1.3.2,2.4.6,2.6,1.4.9,2,3.2,4.1,4.2,2.3,1,.9,2.1.1,2.2s-3.5.1-4.5.1-.8-1-.9-1.4c0-.1-.1-1-1.4-1.2C54,65.7,54.3,66.2,54.3,66.3Z" transform="translate(0.2 0)"/>
    <path class="cls-2" d="M21.6,58.7a7.26,7.26,0,0,0,.1,2.9c.1.6.7.8,1,1.5a1.86,1.86,0,0,1-.4,2.1c-.4.1-1.3.9-1.3,1.3s-.8,1.1-1.2,1.1c-.2,0-3,.1-3.5.1s-1.4-.2-1.3-.9a2.16,2.16,0,0,1,1.2-1.3c.6-.2,2.4-.9,2.6-2.3a28.48,28.48,0,0,0-.9-3.8C19.1,58.4,21.6,58.7,21.6,58.7Z" transform="translate(0.2 0)"/>
    <path class="cls-2" d="M37.77,20.1a3.72,3.72,0,0,1-1.27-.2,23.24,23.24,0,0,1-2.9-2.7,20.86,20.86,0,0,0,3,2.5,3.6,3.6,0,0,0,1.8,0c.3-.1,1.2-1.8,1.2-1.8A18.88,18.88,0,0,0,41,13.5c-.3-.3-.2-.7,0-1.1a4.13,4.13,0,0,0-.4-2.7,5.3,5.3,0,0,0-3.9-2.3c-2.1,0-4.3,2.2-4.4,3.8v1.2a3.53,3.53,0,0,0-.3,1.4,3.71,3.71,0,0,0,.4,1.5c0,.1.1,1.3.1,1.9a9.64,9.64,0,0,1-.2,1.2c-.1.3-.3,3.8-.3,4.2a17.31,17.31,0,0,0,1.3,3.3c.2.4,0,.2,2.3,2.7a19,19,0,0,1,2.1-2.3,21.88,21.88,0,0,0,2.8-3,5.22,5.22,0,0,0,1.3-3.4,4.59,4.59,0,0,0-2-1.9,6.89,6.89,0,0,0-.3.8,4.67,4.67,0,0,0-.1,1.6,2.68,2.68,0,0,0,1.3,1l-.4-.1a2.44,2.44,0,0,1-1.1-.9V19.3c-.3.4-.51.63-.7.7A2.62,2.62,0,0,1,37.77,20.1Zm1.45-6.69a6.54,6.54,0,0,0,1.58-.51,2.37,2.37,0,0,1-1.1,1.4c-.3,0,0-.59-.38-.59C39.22,13.61,39.22,13.71,39.22,13.41ZM38,13.55c.1,0,.1,0,0,.1-.4.1-.6.7-.9.7a2.07,2.07,0,0,1-1.3-.9c-.4-.4-.5-.74-.9-.9A6.82,6.82,0,0,0,38,13.55ZM32.7,15.5a14.59,14.59,0,0,1,.3,2c.1,1.1.1,3.1.2,3.3h0a20.8,20.8,0,0,1-.4-3.3,8.47,8.47,0,0,1-.1-1.3Z" transform="translate(0.2 0)"/>
    <path class="cls-9" d="M55.1,50.2c-.8-.9-2.4-3.4-4.9-6.2-.1-.1-.2-.3-.4-.4a1.4,1.4,0,0,1,.4-.4,18.39,18.39,0,0,0-3.1-2.5,36.57,36.57,0,0,0-3.6-1.5,4.88,4.88,0,0,1-.3-.7A8,8,0,0,0,45,36c.3-.4.3-2.7.4-3.5s.5-1.6.5-2.5c.2.1.4.1.5.2.4.3.6.4.6.7a13.55,13.55,0,0,0,2.7,2.6,2.58,2.58,0,0,0,3.2-.8l1.5-3.3a1.72,1.72,0,0,0,.1-.8A10.14,10.14,0,0,0,52,26a10.18,10.18,0,0,1-1.8-2.3,2.49,2.49,0,0,0-2-.7,2.31,2.31,0,0,0-1.5-1.4c-.2-.9-3.5-1.6-4-1.6-.7-1.7-1.5-2.4-2.7-2.5.9.1,1.5,1,1.8,2s0,3.1-3.2,6c-.9.8-1.9,1.9-2.9,3a9.23,9.23,0,0,1-2.3-2.9,32.13,32.13,0,0,1-1.2-3.1,23.4,23.4,0,0,1,.29-5.33,2.71,2.71,0,0,0-1.79.93,2.43,2.43,0,0,0-1.2,0c-.2.1-.5.5-.8.5s-1.6-1.6-2.1-1.7c-.1-.3-.4-.3-.8-.3A8.94,8.94,0,0,1,23,14.5c-1,0-4.3,2.3-4.5,5.6.7,3,3.5,5.1,4.7,5.2A9.49,9.49,0,0,0,26,27a10,10,0,0,0,1.2,4.1c-.2,1.3.8,6.7,2.5,7.3-.1.2-.1.4-.2.6-.1,0-.2.1-.4.2h0a28.25,28.25,0,0,0-5.4,3.3c-.2.4,0,.6,0,.6s-6.3,5.4-6.7,7a28.06,28.06,0,0,0-1.1,7.3c.2.6,1.3.8,1.6.8,0,.4.1,1.2.7,1.3a9.22,9.22,0,0,0,3.2-.7c.7-.3,1.6-.1,2-.3A4.14,4.14,0,0,0,25,55.4c0-1.2.8-1.2,1.5-1.7.5-.4,3.6-2.8,3.9-3a6.47,6.47,0,0,0,1.3.4,11.64,11.64,0,0,0,4.6.5,33.31,33.31,0,0,0,6.8-1.9c.6.3,2.5,2.6,2.5,3.4s2,2.4,2.5,2.7c0,.2-.3.4-.3.7a2.73,2.73,0,0,0,1.7,1.4,9.3,9.3,0,0,0,3.7,1.9,15,15,0,0,0,3.4-2,24.1,24.1,0,0,0,.8-4.6C57.4,52.1,55.8,51.1,55.1,50.2Z" transform="translate(0.2 0)"/>
    <path class="cls-2" d="M53.47,28.43c1,.3,3.73,5.57,4.23,6.07s.4,2.4.4,2.9-.7,1.2-1.4,1.9a11.25,11.25,0,0,1-3.1-.2c-.5-.2-1-.9-.9-1.2-.1-.1-.3-.1-.5-.3a6.75,6.75,0,0,1-.2-1.4c0-.2.3-.5.5-.7s.2-.9.3-1.1a1.83,1.83,0,0,1,.8-.6,17.63,17.63,0,0,0-3.3-3.4A4.44,4.44,0,0,1,53.47,28.43Z" transform="translate(0.2 0)"/>
    <path class="cls-4" d="M36.8,42.4a11.76,11.76,0,0,0,6.7-3.2l-.3-.7a16.17,16.17,0,0,1-7.4,2.7,1.74,1.74,0,0,0-.7-.3c-.1,0-.2.1-.4.3a.6.6,0,0,1-.4-.1c-.2-.2-.5-.3-.6-.2s-.1,0-.2.1c-2-.6-3.4-2.2-4-2.6l-.1.6a8.65,8.65,0,0,0,3.3,2.8c0,.1-.1.1-.1.2s0,.1.1.2h0c-1.4.7-1.9,2.5-2.2,3.4a25.66,25.66,0,0,0,0,4.8,47.73,47.73,0,0,1-.4,5c.1.2,1,.9,1.6,1.5a96.33,96.33,0,0,1-.5-10.2c.2-1.7.6-3.2,2.2-4h0c.2.1.4.2.5.1a.35.35,0,0,1,.2-.1,2.57,2.57,0,0,0,1.6.7c.1,0,.2-.1.3-.2h0c.8.4,1.1,1.6,1,2.9s-1.1,9.4-1,10.8l1.4-.2s-.1-6,.1-7.3S38.9,44.2,36.8,42.4Z" transform="translate(0.2 0)"/>
    <path class="cls-10" d="M45.9,30c-.5-.2-2.2-.6-2.4-1a5.09,5.09,0,0,1,1,2.5c.6.1.84,1.4.84,1.9a5.06,5.06,0,0,1,.36-2.1C45.7,31.1,45.9,30.3,45.9,30Z" transform="translate(0.2 0)"/>
    <path class="cls-10" d="M26,27c0-.8.4-4.8,1.1-6-1.6,2.1-1.4,3.6-1.8,4.2s-1.3.6-1.6.6A8.49,8.49,0,0,0,26,27Z" transform="translate(0.2 0)"/>
    <path class="cls-11" d="M39.9,17.5l-.1.5a5.77,5.77,0,0,1,2,1.9C41.4,18.3,40.8,17.6,39.9,17.5Z" transform="translate(0.2 0)"/>
    <path class="cls-11" d="M36.64,19.7a3.08,3.08,0,0,0,1.9,0c.3-.1,1.16-1.72,1.16-1.72a16.38,16.38,0,0,0,1.4-4.4,1.65,1.65,0,0,1,0-1.2,4.13,4.13,0,0,0-.4-2.7c-.5-1.1-3-2.64-4.68-2.24,2.67.49,3.23,3.31,3.21,5.24.1,1.5-.63,6.5-1.33,6.8A7.93,7.93,0,0,1,36.64,19.7Zm2.58-6.29a6.54,6.54,0,0,0,1.58-.51,2.37,2.37,0,0,1-1.1,1.4c-.3,0,0-.59-.38-.59C39.22,13.61,39.22,13.71,39.22,13.41Z" transform="translate(0.2 0)"/>
    <path class="cls-10" d="M41.52,18.13A3.28,3.28,0,0,0,40,17.48,3.25,3.25,0,0,1,41.8,20.1a6.14,6.14,0,0,1-1.4,3.3c-.8,1.1-3.8,3.6-4.8,5l-.1-.1a14.59,14.59,0,0,1-3.3-5.81,17.83,17.83,0,0,1,.29-5.3l-.28,0a15.09,15.09,0,0,0-.57,5.24A12.2,12.2,0,0,0,35,29h0a19.79,19.79,0,0,0-4.9,9.8c.4.3.5.4.5.5,1.7-6.5,3.9-9,5.5-10.7,1.2-1.3,4.8-4.8,5.6-6.4C43.1,19.8,42.82,19.63,41.52,18.13Z" transform="translate(0.2 0)"/>
    <path class="cls-10" d="M23.6,43.2A60.82,60.82,0,0,1,29.4,39a19.23,19.23,0,0,0-5.69,3.44C23.51,42.78,23.5,43.1,23.6,43.2Z" transform="translate(0.2 0)"/>
    <path class="cls-10" d="M49.8,43.6a37.12,37.12,0,0,0-6.31-4.39c4.36,1.38,5,2.46,6.76,4A1.37,1.37,0,0,1,49.8,43.6Z" transform="translate(0.2 0)"/>
    <path class="cls-10" d="M16.07,57.67c1.15.64,1.2-2.91,1.23-5,0,4,.19,5.2.19,5.5A2.11,2.11,0,0,1,16.07,57.67Z" transform="translate(0.2 0)"/>
    <path class="cls-10" d="M20.29,59.16c1.6-1.4,1.51-3.26,1.51-4.86,0,2.7-.18,4.21.62,4.31A10,10,0,0,0,20.29,59.16Z" transform="translate(0.2 0)"/>
    <g>
      <path class="cls-10" d="M24.9,47.2c.4-1.5,4.2-6.7,5-7.5l-.1-.1c-.7.7-4.6,6.1-5,7.6h0l.1.1-.1-.1a6,6,0,0,0,1.7,1.9,7.89,7.89,0,0,1,1.9,2.2,12.4,12.4,0,0,1-3.06,3.09c.1-.1.77-.43,1.07-.63s4-3.06,4-3.06C28.41,50.1,25.7,48.6,24.9,47.2Z" transform="translate(0.2 0)"/>
      <path class="cls-10" d="M56,57.4c-.6,1.2-5,1.2-6-.1-.7.8-1.3-1-1-1.9-.8.1-1.9-1.3-2.6-2.5-.7-.1-1.5-2.6-.5-4.5.3-.2.9-.7.9-.7v-.1a21.41,21.41,0,0,1-1.2-2.8c-.2-.4-.3-.8-.5-1.2a23.09,23.09,0,0,0-2.2-3.9l-.18.16A19.3,19.3,0,0,1,44.9,43.7c.1.3.3.7.4,1.1a29.34,29.34,0,0,0,1.2,2.8,13.93,13.93,0,0,1-3.7,2.2l.3.3a11,11,0,0,1,1,1.1,5.07,5.07,0,0,1,1.2,2.2,6.66,6.66,0,0,0,2.4,2.4c0,.1-.1.2-.2.5s-.1.4.5,1,1,.7,1.2.7c0,.1.2.3.4.4a10.36,10.36,0,0,0,3.2,1.5,12.13,12.13,0,0,0,3.79-2.07c-.16-.14-.19-.53-.09-1.23C56.35,57,56.2,57.6,56,57.4Z" transform="translate(0.2 0)"/>
    </g>
    <path class="cls-10" d="M54.4,28.6c-.5-.3-1.92-.36-3.52,1.14C49,31.44,49.4,33,49.5,33.2a2.32,2.32,0,0,0,1.3.5,2.4,2.4,0,0,0,2-1c-.4-.4-1.32-1.42-2.42-2.42,0-.2.11-.16.61-.66a3.53,3.53,0,0,1,2.33-1.23,5.27,5.27,0,0,1,1.09.89Z" transform="translate(0.2 0)"/>
    <path class="cls-10" d="M40,40.12c1.7-.8,3.5-3.9,4.1-7.2-.9,3.7-.4,3.8.2,3.5-1.1,1.6-.3,1.2-.1.9-.7,1-.7,1-1,1.2A11.73,11.73,0,0,1,40,40.12Z" transform="translate(0.2 0)"/>
    <path class="cls-10" d="M28.1,36.3c.7,1.1.9,1.1-.1-3.4.2.4.4.2.1-1.9.6,3.5,1.2,6.8,2,7.8a7.34,7.34,0,0,1-1.3-1A6.56,6.56,0,0,1,28.1,36.3Z" transform="translate(0.2 0)"/>
  </g>
</svg>
