<svg xmlns="http://www.w3.org/2000/svg" width="0" height="0">

	<svg id="icon-arrow" viewBox="0 0 13 13">
		<style type="text/css">
			.st0{fill:#333;}
		</style>
		<polygon class="st0" points="2.8,11.4 3.5,12.2 8.5,7.2 8.5,7.2 9.2,6.5 8.5,5.8 3.5,0.8 2.8,1.6 7.8,6.5 "/>
	</svg>

	<svg id="icon-frame" viewBox="0 0 17 17">
		<polygon fill="#333" points="3,2 3,15 14,15 14,7 8.9,7 8.9,2 "/>
		<polygon fill="#333" points="9.7,6.3 13.9,6.3 9.7,2.1 "/>
	</svg>

	<svg id="icon-folder" viewBox="0 0 17 17">
		<path fill="#333" d="M15,6.5v6.1c0,1-0.5,1.5-1.4,1.5h-10c-1,0-1.6-0.5-1.6-1.5V4.4C2,3.4,2.3,3,3.3,3h3.4C7.6,3,8,3.4,8,4.3V5h5.5
			C14.5,5,15,5.5,15,6.5z"/>
	</svg>

	<svg id="stance-01" viewBox="0 0 144 144">
		<style type="text/css">
			.st0{fill:#010101;}
			.st1{fill:#EEEDEE;}
		</style>
		<g id="stance">
			<path class="st0" d="M39.9,129.2c-0.8,1.7-1.3,1.9-1.1,3c0.2,1.1,2.4,2.8,2.1,4.5c-0.4,1.7-2,3-3.5,2.7s-2-0.3-3-0.3
				c-3.7,0.3-2.2,2.4-7.1,2.4c-3.5,0-7-0.1-6.9-1.1c0.1-1,0.7-2.3,2.6-2.4c4.1-0.2,5-3.1,6.5-4.1c1.5-1,4.2-2.7,4.8-4.7
				C34.3,128.8,40.2,128.4,39.9,129.2z"/>
			<path class="st0" d="M104.1,129.3c0.8,1.7,1.3,2.7,1.1,3.8s-1.5,4.2-1.1,5.9c0.4,1.7,2,2.2,3.5,2c1.5-0.3,3-0.8,4-0.6
				s1.8,2.2,5.3,2c3.5-0.1,7-0.9,6.9-1.9s-1.9-1.7-2.6-1.6c-2.4-0.1-4.2-2.5-5.7-3.5c-1.5-1-5-4.1-5.6-6.1
				C109.7,129,103.8,128.6,104.1,129.3z"/>
			<path class="st1" d="M67,40.4c-3.3-0.3-8,2.8-8.2,3.9c-0.2,1-0.8,1.6-2.2,1.5c-1.3-0.1-6.7,1.9-7.6,3.6s-6.2,5.5-9,6.1
				c-2.8,0.6-7,7.9-5.8,11.4c1.2,3.6,5.5,6.2,10.1,6.7c4.6,0.5,7.5,0.7,8.6,0.7c0.9,2.2,2.8,6.4,4.2,7.3c4.4,1.2,12.6,0.8,17,0.6
				s10.9-1.9,12-2.6c1.2-2.9,3.1-12.8,3.2-14.3c0.1-1.5,1.7-1.9,4.9-3.1c3.3-1.2,12.8,0.7,13.3-0.7s1.2-8.3,1.2-10.2s-0.3-5.7-0.7-5.7
				c-3.9,1.6-9.6-1.6-12.2-1.1c-2.5,0.5-4.5-1.6-6.4-2.6c-2.5-1.3-4.9-0.8-7.1-0.9C80.4,40.8,69.6,40.6,67,40.4z"/>
			<path class="st1" d="M58,84.1c-5.1,2.1-23,18.5-24,20.5c-1,2-4.6,5.1-4.7,6.5c-0.1,1.4-1.3,5.4-1.6,7.4c-0.3,2-0.7,7.1-1.6,10.3
				c-0.8,3.2-1.2,4.7,1.9,5.6s12.6-0.2,13.4-0.5c0.6-2.8,0-4.9,0.4-7.1c0.3-2.1,1.6-4.7,2-6.1c0.4-1.4-0.5-3,0.4-3.6
				c0.8-0.6,4.8-1.4,5.8-2.6c1-1.2,8-5.8,8.1-7.2c2.7-0.7,3.5-0.1,4.8,0.7c1.3,0.8,7.6-1.5,9.1-2.2c1.5-0.7,3.2,1,3.7,2.2
				c2.5,1,6.3-1.6,7.9-1.7c1.6-0.1,3.8,2.3,6,3.3s5.9,1,7.3,2.1c0,2.9,1.1,5.7,3.7,8.1c2.5,2.3,2,9.1,2.6,11.1c0.7,2.1,2.3,3.8,5,3.7
				c2.6-0.2,9.7-1.3,11.1-2.4c0-6.8-6.6-20.3-7-22.8c-0.5-2.5,0.2-7.7-0.6-9c-0.7-1.3-22.3-18.1-25.5-17.8c-9.3,2.9-12.6,3-16.8,2.9
				C65.1,85.1,60.9,84.7,58,84.1z"/>
			<path class="st0" d="M58,84.2c2.3,0.9,10.4,0.7,11.8,0.6c-2.3,7-5.7,13-1.5,27.5c2.1,0.7,3.2,0.4,3.7,0c-1.5-3-2.1-8.6-2.3-11.2
				c-0.3-3.4,0.8-14.5,1.5-16.2c3.4,6.6,7.1,8.8,9.4,12.1s3.7,6.7,4.2,7.4s4-0.7,4.2-1.4c0.2-0.7-1.3-4.7-4.7-7.7s-8.1-4.1-11.2-10.5
				c4.2-0.2,12.3-2.2,13.2-2.5c0-0.9-0.2-2.1-0.7-2.6c-6.1,2.1-9.6,2.4-15.1,2.6c-8.1,0.2-11-0.2-13.3-0.8
				C57.2,82.7,57.7,83.6,58,84.2z"/>
			<path class="st0" d="M67,39.8c0-3.4-1.6-7-1-9.8c0.6-2.8,3.4-6.2,8.5-6.2c5.1,0,9.4,4.5,9.9,5.4c0,1.4-1,2.7-1.6,2.9
				c0.4,2.2,1,4.1,0.9,4.6c-0.1,0.5-1.6,1.8-1.5,2.4c0.1,0.7,1.1,3.6,0.7,4.2c-0.5,0.7-1.7,0.5-2.2,0.5c0.3,1.5,0.1,3.9-1.9,3.7
				c-0.7,0-1.5,0.6-1.6,0.8c-0.7,4.9-2.6,11.7-3.2,12.8c-2-4.4-4.9-8.1-6.3-9.2c-1.4-1.1-3.7-5.7-3.7-6.7C64.1,43.6,67,42.4,67,39.8z"
				/>
			<path class="st0" d="M53.7,74.9c1,0.4,5.1,0.7,8.6,0.7s6-1.3,7-2.7c1-1.4-0.4-2-0.7-2.5s-0.8-2.7-2-2.9c-1.1-0.2-1.4,0.4-2.4,0.7
				c-1,0.3-1,0.5-1.8,0.4c-1.5-0.2-2.4,0.5-3.3,2.1c-1.1-0.3-3.1-1.1-3.9-1.6c-1.5-0.9-4.6-3.2-7.7-2.7c-3.1,0.5-8.3,4.1-6.6,5.9
				C42.6,74,50.6,74.7,53.7,74.9z"/>
			<path class="st0" d="M108.3,45.3c0.8-0.2,4.1-0.1,4.3-0.5c0.2-0.4,0.6-1.9,0.6-1.9c-0.9-0.8-0.8-1.8-0.6-2.8
				c0.2-0.8-0.3-2.1,0.3-3.1c0.1-0.2,0.6-0.5,0.8-0.4c0-1.1,0.1-2.6,0.4-3.6c0.1-0.5,1-1.4,1.4-1.4c0.8,0,2,0.9,2.7,1.9
				c0.5,0.8,0.6,2.7,0.7,4.7c0.1,2.5,0,5-0.3,6.3c-0.2,1.1-1.5,3.6-2.1,4c-1.6,1.2-6,4.2-7.8,4.6C106.8,53.6,106.9,45.7,108.3,45.3z"
				/>
		</g>
	</svg>

</svg>