<svg xmlns="http://www.w3.org/2000/svg" width="0" height="0">

	<svg id="icon-arrow" viewBox="0 0 13 13">
		<style type="text/css">
			.st0{fill:#333;}
		</style>
		<polygon class="st0" points="2.8,11.4 3.5,12.2 8.5,7.2 8.5,7.2 9.2,6.5 8.5,5.8 3.5,0.8 2.8,1.6 7.8,6.5 "/>
	</svg>

	<svg id="icon-frame" viewBox="0 0 17 17">
		<polygon fill="#333" points="3,2 3,15 14,15 14,7 8.9,7 8.9,2 "/>
		<polygon fill="#333" points="9.7,6.3 13.9,6.3 9.7,2.1 "/>
	</svg>

	<svg id="icon-folder" viewBox="0 0 17 17">
		<path fill="#333" d="M15,6.5v6.1c0,1-0.5,1.5-1.4,1.5h-10c-1,0-1.6-0.5-1.6-1.5V4.4C2,3.4,2.3,3,3.3,3h3.4C7.6,3,8,3.4,8,4.3V5h5.5
			C14.5,5,15,5.5,15,6.5z"/>
	</svg>

</svg>