<svg xmlns="http://www.w3.org/2000/svg" width="0" height="0">

	@import "fighter.svg"

	<svg id="icon-arrow" viewBox="0 0 13 13">
		<style type="text/css">
			.st0{fill:#333;}
		</style>
		<polygon class="st0" points="2.8,11.4 3.5,12.2 8.5,7.2 8.5,7.2 9.2,6.5 8.5,5.8 3.5,0.8 2.8,1.6 7.8,6.5 "/>
	</svg>

	<svg id="icon-frame" viewBox="0 0 17 17">
		<polygon fill="#333" points="3,2 3,15 14,15 14,7 8.9,7 8.9,2 "/>
		<polygon fill="#333" points="9.7,6.3 13.9,6.3 9.7,2.1 "/>
	</svg>

	<svg id="icon-folder" viewBox="0 0 17 17">
		<path fill="#333" d="M15,6.5v6.1c0,1-0.5,1.5-1.4,1.5h-10c-1,0-1.6-0.5-1.6-1.5V4.4C2,3.4,2.3,3,3.3,3h3.4C7.6,3,8,3.4,8,4.3V5h5.5
			C14.5,5,15,5.5,15,6.5z"/>
	</svg>

	<svg id="smack" viewBox="0 0 96 32">
		<style type="text/css">
			.st0{fill:#fff;}
		</style>
		<path class="st0" d="M16.8,10.4c1.9-0.6,3.4-2.3,3.9-2.9c-1.9,2.5-2.6,3.5-2.6,4.2C18,11.2,17.8,10.4,16.8,10.4z"/>
		<path class="st0" d="M22.4,15.9c0.3,0.5,0.3,1.1,0.1,1.3c0.7-0.5,2.1-0.7,2.6-0.7C23.5,16.4,22.6,16.1,22.4,15.9z"/>
		<path class="st0" d="M23.4,11.2c-5.9,3.1-8.9,1.7-12.5-4.2c0.2,5.3-3,3.1-5.3,0.8c1.9,2.2,4.6,4.9-2.4,4.6c5.3,2.2,7,3.4,2.7,8.9
			c2.7-2.5,6.4-3.8,9.5,1.8c0.7-4,2.7-4.8,8.9-1.2C18.2,16.3,19.6,13.6,23.4,11.2z M15.4,18.3c-2.3,0.1-4.7-0.8-5.1-2.7
			c-0.4-1.9,0.6-2.8,2.6-2.8c0.4,0,2.7,0.6,3.8,1.7C19.2,16.5,17.7,18.2,15.4,18.3z"/>
		<path class="st0" d="M39,10.3c-0.4-1-2.1-3.2-2.8-3.5c2.5,2.4,3.2,2.5,3.5,2.5C39.2,9.6,39,10.3,39,10.3z"/>
		<path class="st0" d="M33.7,12.6c3.4-0.5,6.2-0.9,7.7-1.5c-0.4,0.5-0.7,1.1-0.5,1.9C38.2,12.9,35.2,12.6,33.7,12.6z"/>
		<path class="st0" d="M43.4,10.4c1.2,0,5.7-0.4,7.6,3.5c0.9-0.4,2.7-0.6,3.5-0.6c-3.3-0.4-5.7-1.7-0.4-5.9c-5.7,3.2-7.8,4.2-10.4-1.3
			C44.1,9.5,43.4,10.4,43.4,10.4z"/>
		<path class="st0" d="M39.4,14.1c-0.6-1.1-1.4,0.6-2,1.4c-0.6,0.9-1.6,1.8-2.4,1.8c2.2,0,2.3-1.3,3.1-1.6
			C39.1,15.5,40.8,16.8,39.4,14.1z"/>
		<path class="st0" d="M40.8,17.7c-0.8,1.3-4,4.4-5,5c2.5-1.9,5.7-3.1,6.8-3.2C41.4,19.2,40.8,18,40.8,17.7z"/>
		<path class="st0" d="M43.4,19.5c2.6,0.2,3.7,0.2,5.3,0.1s2.1-0.6,2.9-0.6c-2.4,0.9-2.5,3.4-2.5,5.2C48.6,20.4,47.8,20.6,43.4,19.5z"
			/>
		<path class="st0" d="M58.2,9.4c-1.1,1.1-2.3,2.2-2.2,2.9c-0.2-0.6-0.3-1-0.7-1C56.1,11.1,58.2,9.4,58.2,9.4z"/>
		<path class="st0" d="M53.5,15.1c1.8,0,2.2,0.7,2.1,1.6c0,0.9-1.7,1.4-2.1,1.5C54.3,17,54.1,15.7,53.5,15.1z"/>
		<path class="st0" d="M57.5,15.8c1.9,0.5,3.8,0.8,4.3,0.8c-2,0-4.1,0.2-4.3,0.6C57.7,16.6,57.6,16.1,57.5,15.8z"/>
		<path class="st0" d="M53.9,18.6c2.1,0.7,5.8,2.5,6.3,4.3c-1.2-1.3-3.8-1.9-5-2c-1.2-0.1-1.8-0.7-1.8-1.1
			C54.1,19.5,53.9,18.9,53.9,18.6z"/>
		<path class="st0" d="M75.4,8c0.2-1.7,0.4-3.4,0.4-3.8C76.3,6.5,77.6,8,78,8.5C76.5,7.7,75.4,8,75.4,8z"/>
		<path class="st0" d="M69.9,8.7c-1.4-0.4-3.7-2.1-4.8-2.7c2.7,2.5,4.1,3.4,4.4,3.8C69.7,9.4,69.9,8.7,69.9,8.7z"/>
		<path class="st0" d="M69.4,12c-1.5,0.4-4.6,0.6-5.6,0.7c1.8,0,5.2,0.1,5.6,0.6C69.2,12.7,69.4,12.3,69.4,12z"/>
		<path class="st0" d="M67.5,16.8c-1.7,0.7-3.2,0.8-3.6,0.9c1.6,0,3.4,0.2,3.6,0.6C67.3,17.6,67.4,17.2,67.5,16.8z"/>
		<path class="st0" d="M70.8,19.8c-1.5,1.3-3.5,2.6-4.8,3.1c2.9-1.4,5-2.3,5.9-2.2C71.1,20.5,71,20.2,70.8,19.8z"/>
		<path class="st0" d="M74.5,21.3c-0.4,1-2.2,3.6-2.9,4.1c1.7-1.5,3.4-2.8,4.3-2.9C74.9,22.2,74.7,21.6,74.5,21.3z"/>
		<path class="st0" d="M79.5,23.3c0.8,1.1,1.5,2.8,1.7,3.6c0-2.1-0.1-3.5,0.6-4C80.5,23.6,79.5,23.3,79.5,23.3z"/>
		<path class="st0" d="M91.5,15.6c1,0.9,2.6,1,3.4,1c-2,0.3-3.2,0.4-3.4,1C91.9,16.6,91.7,15.9,91.5,15.6z"/>
		<path class="st0" d="M90.4,20.7c-0.7,1.3-1,1.8-1.5,2c1.9-0.4,5.5,1.2,6.1,1.7C92.9,23.1,90.6,21.4,90.4,20.7z"/>
		<path class="st0" d="M90.3,11.7c0.6-0.7,2.8-2.4,3.6-2.7c-2.3,1-4.2,2-5,2C90.1,11.1,90.2,11.3,90.3,11.7z"/>
		<path class="st0" d="M85.2,10.3c0.4-0.9,3.7-3,4.9-3.7c-3.3,1.1-6.3,3.3-7.1,3.2C84.2,9.8,85,9.9,85.2,10.3z"/>
	</svg>

	<svg id="modern-01" viewBox="0 0 144 144">
		<style type="text/css">
			.st0{fill:#010101;}
			.st1{fill:#EEEDEE;}
		</style>
		<g id="stance">
			<path class="st0" d="M39.9,129.2c-0.8,1.7-1.3,1.9-1.1,3c0.2,1.1,2.4,2.8,2.1,4.5c-0.4,1.7-2,3-3.5,2.7s-2-0.3-3-0.3
				c-3.7,0.3-2.2,2.4-7.1,2.4c-3.5,0-7-0.1-6.9-1.1c0.1-1,0.7-2.3,2.6-2.4c4.1-0.2,5-3.1,6.5-4.1c1.5-1,4.2-2.7,4.8-4.7
				C34.3,128.8,40.2,128.4,39.9,129.2z"/>
			<path class="st0" d="M104.1,129.3c0.8,1.7,1.3,2.7,1.1,3.8s-1.5,4.2-1.1,5.9c0.4,1.7,2,2.2,3.5,2c1.5-0.3,3-0.8,4-0.6
				s1.8,2.2,5.3,2c3.5-0.1,7-0.9,6.9-1.9s-1.9-1.7-2.6-1.6c-2.4-0.1-4.2-2.5-5.7-3.5c-1.5-1-5-4.1-5.6-6.1
				C109.7,129,103.8,128.6,104.1,129.3z"/>
			<path class="st1" d="M67,40.4c-3.3-0.3-8,2.8-8.2,3.9c-0.2,1-0.8,1.6-2.2,1.5c-1.3-0.1-6.7,1.9-7.6,3.6s-6.2,5.5-9,6.1
				c-2.8,0.6-7,7.9-5.8,11.4c1.2,3.6,5.5,6.2,10.1,6.7c4.6,0.5,7.5,0.7,8.6,0.7c0.9,2.2,2.8,6.4,4.2,7.3c4.4,1.2,12.6,0.8,17,0.6
				s10.9-1.9,12-2.6c1.2-2.9,3.1-12.8,3.2-14.3c0.1-1.5,1.7-1.9,4.9-3.1c3.3-1.2,12.8,0.7,13.3-0.7s1.2-8.3,1.2-10.2s-0.3-5.7-0.7-5.7
				c-3.9,1.6-9.6-1.6-12.2-1.1c-2.5,0.5-4.5-1.6-6.4-2.6c-2.5-1.3-4.9-0.8-7.1-0.9C80.4,40.8,69.6,40.6,67,40.4z"/>
			<path class="st1" d="M58,84.1c-5.1,2.1-23,18.5-24,20.5c-1,2-4.6,5.1-4.7,6.5c-0.1,1.4-1.3,5.4-1.6,7.4c-0.3,2-0.7,7.1-1.6,10.3
				c-0.8,3.2-1.2,4.7,1.9,5.6s12.6-0.2,13.4-0.5c0.6-2.8,0-4.9,0.4-7.1c0.3-2.1,1.6-4.7,2-6.1c0.4-1.4-0.5-3,0.4-3.6
				c0.8-0.6,4.8-1.4,5.8-2.6c1-1.2,8-5.8,8.1-7.2c2.7-0.7,3.5-0.1,4.8,0.7c1.3,0.8,7.6-1.5,9.1-2.2c1.5-0.7,3.2,1,3.7,2.2
				c2.5,1,6.3-1.6,7.9-1.7c1.6-0.1,3.8,2.3,6,3.3s5.9,1,7.3,2.1c0,2.9,1.1,5.7,3.7,8.1c2.5,2.3,2,9.1,2.6,11.1c0.7,2.1,2.3,3.8,5,3.7
				c2.6-0.2,9.7-1.3,11.1-2.4c0-6.8-6.6-20.3-7-22.8c-0.5-2.5,0.2-7.7-0.6-9c-0.7-1.3-22.3-18.1-25.5-17.8c-9.3,2.9-12.6,3-16.8,2.9
				C65.1,85.1,60.9,84.7,58,84.1z"/>
			<path class="st0" d="M58,84.2c2.3,0.9,10.4,0.7,11.8,0.6c-2.3,7-5.7,13-1.5,27.5c2.1,0.7,3.2,0.4,3.7,0c-1.5-3-2.1-8.6-2.3-11.2
				c-0.3-3.4,0.8-14.5,1.5-16.2c3.4,6.6,7.1,8.8,9.4,12.1s3.7,6.7,4.2,7.4s4-0.7,4.2-1.4c0.2-0.7-1.3-4.7-4.7-7.7s-8.1-4.1-11.2-10.5
				c4.2-0.2,12.3-2.2,13.2-2.5c0-0.9-0.2-2.1-0.7-2.6c-6.1,2.1-9.6,2.4-15.1,2.6c-8.1,0.2-11-0.2-13.3-0.8
				C57.2,82.7,57.7,83.6,58,84.2z"/>
			<path class="st0" d="M67,39.8c0-3.4-1.6-7-1-9.8c0.6-2.8,3.4-6.2,8.5-6.2c5.1,0,9.4,4.5,9.9,5.4c0,1.4-1,2.7-1.6,2.9
				c0.4,2.2,1,4.1,0.9,4.6c-0.1,0.5-1.6,1.8-1.5,2.4c0.1,0.7,1.1,3.6,0.7,4.2c-0.5,0.7-1.7,0.5-2.2,0.5c0.3,1.5,0.1,3.9-1.9,3.7
				c-0.7,0-1.5,0.6-1.6,0.8c-0.7,4.9-2.6,11.7-3.2,12.8c-2-4.4-4.9-8.1-6.3-9.2c-1.4-1.1-3.7-5.7-3.7-6.7C64.1,43.6,67,42.4,67,39.8z"
				/>
			<path class="st0" d="M53.7,74.9c1,0.4,5.1,0.7,8.6,0.7s6-1.3,7-2.7c1-1.4-0.4-2-0.7-2.5s-0.8-2.7-2-2.9c-1.1-0.2-1.4,0.4-2.4,0.7
				c-1,0.3-1,0.5-1.8,0.4c-1.5-0.2-2.4,0.5-3.3,2.1c-1.1-0.3-3.1-1.1-3.9-1.6c-1.5-0.9-4.6-3.2-7.7-2.7c-3.1,0.5-8.3,4.1-6.6,5.9
				C42.6,74,50.6,74.7,53.7,74.9z"/>
			<path class="st0" d="M108.3,45.3c0.8-0.2,4.1-0.1,4.3-0.5c0.2-0.4,0.6-1.9,0.6-1.9c-0.9-0.8-0.8-1.8-0.6-2.8
				c0.2-0.8-0.3-2.1,0.3-3.1c0.1-0.2,0.6-0.5,0.8-0.4c0-1.1,0.1-2.6,0.4-3.6c0.1-0.5,1-1.4,1.4-1.4c0.8,0,2,0.9,2.7,1.9
				c0.5,0.8,0.6,2.7,0.7,4.7c0.1,2.5,0,5-0.3,6.3c-0.2,1.1-1.5,3.6-2.1,4c-1.6,1.2-6,4.2-7.8,4.6C106.8,53.6,106.9,45.7,108.3,45.3z"
				/>
		</g>
	</svg>

</svg>